<svg width="150" xmlns="http://www.w3.org/2000/svg" height="112.476" id="screenshot-90cd31e0-2c50-80e2-8006-89e8517ec16c" viewBox="0 -0 150 112.476" xmlns:xlink="http://www.w3.org/1999/xlink" fill="none" version="1.1"><g id="shape-90cd31e0-2c50-80e2-8006-89e8517ec16c" rx="0" ry="0" style="fill: rgb(0, 0, 0);"><g id="shape-90cd31e0-2c50-80e2-8006-89e8517fef95"><g class="fills" id="fills-90cd31e0-2c50-80e2-8006-89e8517fef95"><path d="M38.8206787109375,20.911376953125C34.842529296875,17.607421875,28.9425048828125,18.13916015625,25.6195068359375,22.1015625L2.18359375,50.224609375C-0.727783203125,53.69921875,-0.727783203125,58.76123046875,2.18359375,62.235595703125L25.6195068359375,90.359130859375C27.7587890625,92.950927734375,31.1220703125,94.198974609375,34.43408203125,93.630126953125C37.7464599609375,93.0615234375,40.50048828125,90.7626953125,41.6524658203125,87.605712890625C42.8043212890625,84.44873046875,42.177734375,80.916259765625,40.010009765625,78.34814453125L21.5731201171875,56.23046875L40.0106201171875,34.112548828125C43.326171875,30.138427734375,42.79345703125,24.228759765625,38.8206787109375,20.911376953125Z" style="fill: rgb(255, 255, 255); fill-opacity: 1;"/></g></g><g id="shape-90cd31e0-2c50-80e2-8006-89e851802ab2"><g class="fills" id="fills-90cd31e0-2c50-80e2-8006-89e851802ab2"><path d="M86.205322265625,0.166748046875C81.1395263671875,-0.792236328125,76.23828125,2.480712890625,75.18310546875,7.527587890625L56.4342041015625,101.271484375C55.943115234375,103.709716796875,56.443359375,106.2431640625,57.82470703125,108.3115234375C59.2060546875,110.3798828125,61.3544921875,111.8125,63.794677734375,112.29296875C64.4029541015625,112.41845703125,65.0228271484375,112.479736328125,65.6439208984375,112.476318359375C70.1082763671875,112.468994140625,73.9473876953125,109.3125,74.81689453125,104.93359375L93.5657958984375,11.189208984375C94.05712890625,8.7509765625,93.5567626953125,6.21728515625,92.175537109375,4.14892578125C90.794189453125,2.080078125,88.645751953125,0.6474609375,86.205322265625,0.166748046875Z" style="fill: rgb(255, 255, 255); fill-opacity: 1;"/></g></g><g id="shape-90cd31e0-2c50-80e2-8006-89e851802ab3"><g class="fills" id="fills-90cd31e0-2c50-80e2-8006-89e851802ab3"><path d="M147.81640625,50.224609375L124.3804931640625,22.1015625C122.2412109375,19.509521484375,118.8779296875,18.26123046875,115.56591796875,18.83056640625C112.2535400390625,19.399169921875,109.49951171875,21.697998046875,108.3475341796875,24.85498046875C107.1956787109375,28.011962890625,107.822265625,31.544189453125,109.9898681640625,34.112548828125L128.4268798828125,56.23046875L109.9893798828125,78.3486328125C107.8218994140625,80.91650390625,107.1953125,84.44873046875,108.34716796875,87.60595703125C109.4990234375,90.76318359375,112.253173828125,93.061767578125,115.5653076171875,93.630615234375C118.8775634765625,94.199462890625,122.2408447265625,92.951171875,124.3798828125,90.359130859375L147.81640625,62.235595703125C150.727783203125,58.76123046875,150.727783203125,53.69921875,147.81640625,50.224609375Z" style="fill: rgb(255, 255, 255); fill-opacity: 1;"/></g></g></g></svg>