<svg width="150" xmlns="http://www.w3.org/2000/svg" height="150" id="screenshot-90cd31e0-2c50-80e2-8006-89e6376b064f" viewBox="901 2252 150 150" xmlns:xlink="http://www.w3.org/1999/xlink" fill="none" version="1.1"><g id="shape-90cd31e0-2c50-80e2-8006-89e6376b064f"><g class="fills" id="fills-90cd31e0-2c50-80e2-8006-89e6376b064f"><path d="M976,2252C934.5835571289062,2252,901,2285.58349609375,901,2327C901,2368.41650390625,934.5835571289062,2402,976,2402C982.9163208007812,2402,988.5,2396.416259765625,988.5,2389.5C988.5,2386.25,987.29150390625,2383.33349609375,985.2499389648438,2381.124755859375C983.2916870117188,2378.916259765625,982.1249389648438,2376.041748046875,982.1249389648438,2372.833251953125C982.1249389648438,2365.917236328125,987.7085571289062,2360.333251953125,994.6249389648438,2360.333251953125L1009.3333129882812,2360.333251953125C1032.33349609375,2360.333251953125,1051,2341.666748046875,1051,2318.666748046875C1051,2281.832763671875,1017.4164428710938,2252,976,2252ZM930.1666870117188,2327C923.2504272460938,2327,917.6666870117188,2321.416259765625,917.6666870117188,2314.5C917.6666870117188,2307.583740234375,923.2504272460938,2302,930.1666870117188,2302C937.0829467773438,2302,942.6666870117188,2307.583740234375,942.6666870117188,2314.5C942.6666870117188,2321.416259765625,937.0829467773438,2327,930.1666870117188,2327ZM955.1666870117188,2293.666748046875C948.2504272460938,2293.666748046875,942.6666870117188,2288.082763671875,942.6666870117188,2281.166748046875C942.6666870117188,2274.25048828125,948.2504272460938,2268.666748046875,955.1666870117188,2268.666748046875C962.0829467773438,2268.666748046875,967.6666870117188,2274.25048828125,967.6666870117188,2281.166748046875C967.6666870117188,2288.082763671875,962.0829467773438,2293.666748046875,955.1666870117188,2293.666748046875ZM996.8333129882812,2293.666748046875C989.9170532226562,2293.666748046875,984.3333129882812,2288.082763671875,984.3333129882812,2281.166748046875C984.3333129882812,2274.25048828125,989.9170532226562,2268.666748046875,996.8333129882812,2268.666748046875C1003.7495727539062,2268.666748046875,1009.3333129882812,2274.25048828125,1009.3333129882812,2281.166748046875C1009.3333129882812,2288.082763671875,1003.7495727539062,2293.666748046875,996.8333129882812,2293.666748046875ZM1021.8333129882812,2327C1014.9170532226562,2327,1009.3333129882812,2321.416259765625,1009.3333129882812,2314.5C1009.3333129882812,2307.583740234375,1014.9170532226562,2302,1021.8333129882812,2302C1028.74951171875,2302,1034.333251953125,2307.583740234375,1034.333251953125,2314.5C1034.333251953125,2321.416259765625,1028.74951171875,2327,1021.8333129882812,2327Z" style="fill: rgb(255, 255, 255); fill-opacity: 1;"/></g></g></svg>