<svg width="150" xmlns="http://www.w3.org/2000/svg" height="150" id="screenshot-90cd31e0-2c50-80e2-8006-89e4d2695de9" viewBox="0 0 150 150" xmlns:xlink="http://www.w3.org/1999/xlink" fill="none" version="1.1"><g id="shape-90cd31e0-2c50-80e2-8006-89e4d2695de9" xml:space="preserve" rx="0" ry="0" style="fill: rgb(0, 0, 0);"><g id="shape-90cd31e0-2c50-80e2-8006-89e4d26a01f0" style="display: none;"><g class="fills" id="fills-90cd31e0-2c50-80e2-8006-89e4d26a01f0"><rect width="150" height="150" x="0" transform="matrix(1.000000, 0.000000, 0.000000, 1.000000, 0.000000, 0.000000)" style="fill: none;" ry="0" fill="none" rx="0" y="0"/></g></g><g id="shape-90cd31e0-2c50-80e2-8006-89e4d26a01f1"><g class="fills" id="fills-90cd31e0-2c50-80e2-8006-89e4d26a01f1"><rect width="150" height="150" x="0" transform="matrix(1.000000, 0.000000, 0.000000, 1.000000, 0.000000, 0.000000)" style="fill: none;" ry="0" fill="none" rx="0" y="0" clip-rule="evenodd"/></g></g><g id="shape-90cd31e0-2c50-80e2-8006-89e4d26a9f4b"><g class="fills" id="fills-90cd31e0-2c50-80e2-8006-89e4d26a9f4b"><path d="M82.55853271484375,22.93115234375C82.55853271484375,22.419921875,82.563232421875,21.918701171875,82.563232421875,21.3701171875C82.563232421875,16.5888671875,81.90118408203125,12.736328125,80.841796875,9.6845703125C85.10040283203125,10.21923828125,87.9364013671875,15.089111328125,89.75970458984375,20.6904296875C87.62451171875,21.3564453125,85.19415283203125,22.111328125,82.55853271484375,22.93115234375ZM73.15545654296875,70.60302734375C73.15545654296875,70.60302734375,68.17388916015625,67.930908203125,62.06829833984375,67.930908203125C53.1129150390625,67.930908203125,52.6605224609375,73.57958984375,52.6605224609375,75C52.6605224609375,82.76708984375,72.8016357421875,85.74365234375,72.8016357421875,103.93115234375C72.8016357421875,118.237548828125,63.77105712890625,127.452880859375,51.59295654296875,127.452880859375C36.979736328125,127.452880859375,29.5079345703125,118.3125,29.5079345703125,118.3125L33.4207763671875,105.323486328125C33.4207763671875,105.323486328125,41.10235595703125,111.951904296875,47.58636474609375,111.951904296875C51.81689453125,111.951904296875,53.54290771484375,108.599853515625,53.54290771484375,106.153076171875C53.54290771484375,96.0234375,37.0172119140625,95.568359375,37.0172119140625,78.923583984375C37.0172119140625,64.917236328125,47.0225830078125,51.361083984375,67.21875,51.361083984375C74.9989013671875,51.361083984375,78.84716796875,53.601806640625,78.84716796875,53.601806640625L73.15545654296875,70.60302734375ZM69.8389892578125,5.189208984375C70.67340087890625,5.189208984375,71.50897216796875,5.474853515625,72.311767578125,6.0283203125C66.14056396484375,8.943359375,59.53131103515625,16.29345703125,56.737548828125,30.96533203125C52.65582275390625,32.23583984375,48.66802978515625,33.47802734375,44.9788818359375,34.626220703125C48.247314453125,23.43310546875,56.01324462890625,5.189208984375,69.8389892578125,5.189208984375ZM77.5159912109375,23.662353515625C77.5159912109375,23.957763671875,77.51129150390625,24.2294921875,77.51129150390625,24.501953125C72.82379150390625,25.959228515625,67.73443603515625,27.54345703125,62.632080078125,29.132568359375C65.49609375,18.023193359375,70.86566162109375,12.656005859375,75.5625,10.631103515625C76.74267578125,13.61279296875,77.5159912109375,17.892333984375,77.5159912109375,23.662353515625ZM99.67730712890625,17.69189453125C99.37261962890625,17.7314453125,99.1090087890625,17.79150390625,98.925048828125,17.845458984375C98.82659912109375,17.87353515625,97.184814453125,18.38427734375,94.46600341796875,19.228515625C91.803466796875,11.53125,87.106689453125,4.4580078125,78.8460693359375,4.4580078125C78.61761474609375,4.4580078125,78.37969970703125,4.46728515625,78.14654541015625,4.4814453125C75.795654296875,1.359375,72.8846435546875,0,70.37115478515625,0C51.1207275390625,0,41.9227294921875,24.187744140625,39.039794921875,36.473388671875C31.5587158203125,38.802978515625,26.24530029296875,40.457763671875,25.569091796875,40.67333984375C21.3902587890625,41.99072265625,21.259033203125,42.121826171875,20.71405029296875,46.0732421875C20.2991943359375,49.06884765625,9.375,133.9736328125,9.375,133.9736328125L94.49884033203125,150L94.589111328125,149.97998046875L99.67730712890625,17.69189453125ZM105.77227783203125,21.857666015625C108.2296142578125,24.310791015625,111.016357421875,27.08935546875,111.016357421875,27.08935546875C111.016357421875,27.08935546875,122.48553466796875,27.9423828125,123.0269775390625,27.98876953125C123.572998046875,28.03564453125,124.23046875,28.45263671875,124.33251953125,29.20751953125C124.435546875,29.96240234375,140.625,139.973388671875,140.625,139.973388671875L100.89727783203125,148.60888671875L105.77227783203125,21.857666015625Z" clip-rule="evenodd" fill-rule="evenodd" style="fill: rgb(255, 255, 255);"/></g></g></g></svg>