<svg width="150" xmlns="http://www.w3.org/2000/svg" height="150" id="screenshot-90cd31e0-2c50-80e2-8006-89eb61391a27" viewBox="0 0 150 150" xmlns:xlink="http://www.w3.org/1999/xlink" fill="none" version="1.1"><g id="shape-90cd31e0-2c50-80e2-8006-89eb61391a27" height="512" xml:space="preserve" width="512" rx="0" ry="0" style="fill: rgb(0, 0, 0);"><g id="shape-90cd31e0-2c50-80e2-8006-89eb613a34c3"><g class="fills" id="fills-90cd31e0-2c50-80e2-8006-89eb613a34c3"><path d="M75,0C33.5826416015625,0,0,33.58251953125,0,75C0,116.41748046875,33.5826416015625,150,75,150C116.4173583984375,150,150,116.41748046875,150,75C150,33.58251953125,116.4173583984375,0,75,0ZM81.763427734375,109.38623046875C81.595947265625,115.345947265625,77.1763916015625,119.029052734375,71.450927734375,118.861572265625C65.9598388671875,118.694091796875,61.640625,114.77685546875,61.8079833984375,108.783447265625C61.9754638671875,102.82373046875,66.529052734375,99.040283203125,72.0201416015625,99.20751953125C77.779052734375,99.375,81.96435546875,103.42626953125,81.763427734375,109.38623046875ZM98.0692138671875,66.763427734375C96.6629638671875,68.73876953125,93.515625,71.283447265625,89.564697265625,74.36376953125L85.1785888671875,77.377197265625C83.0357666015625,79.017822265625,81.6964111328125,80.959716796875,80.9932861328125,83.169677734375C80.625,84.341552734375,80.357177734375,87.388427734375,80.2901611328125,89.430908203125C80.2567138671875,89.83251953125,80.0223388671875,90.736572265625,78.783447265625,90.736572265625C77.544677734375,90.736572265625,67.064697265625,90.736572265625,65.69189453125,90.736572265625C64.3192138671875,90.736572265625,64.1517333984375,89.93310546875,64.185302734375,89.53125C64.38623046875,83.97314453125,65.189697265625,79.38623046875,67.5,75.703125C70.6138916015625,70.747802734375,79.3861083984375,65.524658203125,79.3861083984375,65.524658203125C80.7254638671875,64.52001953125,81.763427734375,63.44873046875,82.5670166015625,62.27685546875C84.0401611328125,60.267822265625,85.2454833984375,58.024658203125,85.2454833984375,55.61376953125C85.2454833984375,52.834716796875,84.575927734375,50.189697265625,82.8013916015625,47.97998046875C80.7254638671875,45.40185546875,78.482177734375,44.162841796875,74.1629638671875,44.162841796875C69.9107666015625,44.162841796875,67.4329833984375,46.305908203125,65.658447265625,49.118408203125C63.8839111328125,51.930908203125,64.185302734375,55.24560546875,64.185302734375,58.259033203125L47.8795166015625,58.259033203125C47.8795166015625,46.875,50.859375,39.609375,57.154052734375,35.32373046875C61.40625,32.41064453125,66.830322265625,31.138427734375,73.158447265625,31.138427734375C81.4620361328125,31.138427734375,88.0579833984375,32.6787109375,93.8839111328125,37.09814453125C99.2745361328125,41.18310546875,102.1204833984375,46.94189453125,102.1204833984375,54.709716796875C102.1204833984375,59.497802734375,100.4464111328125,63.515625,98.0692138671875,66.763427734375Z" style="fill: rgb(255, 255, 255); fill-opacity: 1;"/></g></g></g></svg>