<?xml version="1.0" encoding="UTF-8" standalone="no"?>
<!-- Generator: Adobe Illustrator 27.5.0, SVG Export Plug-In . SVG Version: 6.00 Build 0)  -->

<svg
   version="1.1"
   x="0px"
   y="0px"
   viewBox="0 0 500 500"
   style="enable-background:new 0 0 500 500;"
   xml:space="preserve"
   id="svg136"
   sodipodi:docname="rocket-launch.svg"
   inkscape:version="1.4.2 (ebf0e940d0, 2025-05-08)"
   xmlns:inkscape="http://www.inkscape.org/namespaces/inkscape"
   xmlns:sodipodi="http://sodipodi.sourceforge.net/DTD/sodipodi-0.dtd"
   xmlns:xlink="http://www.w3.org/1999/xlink"
   xmlns="http://www.w3.org/2000/svg"
   xmlns:svg="http://www.w3.org/2000/svg"><defs
   id="defs136"><clipPath
     clipPathUnits="userSpaceOnUse"
     id="clipPath55"><path
       d="M 0,576 H 576 V 0 H 0 Z"
       transform="translate(-98.9053,-264.26401)"
       id="path55-3" /></clipPath><clipPath
     clipPathUnits="userSpaceOnUse"
     id="clipPath57"><path
       d="M 0,576 H 576 V 0 H 0 Z"
       transform="translate(-98.9053,-264.26401)"
       id="path57-6" /></clipPath><clipPath
     clipPathUnits="userSpaceOnUse"
     id="clipPath55-7"><path
       d="M 0,576 H 576 V 0 H 0 Z"
       transform="translate(-98.9053,-264.26401)"
       id="path55-5" /></clipPath><clipPath
     clipPathUnits="userSpaceOnUse"
     id="clipPath57-3"><path
       d="M 0,576 H 576 V 0 H 0 Z"
       transform="translate(-98.9053,-264.26401)"
       id="path57-5" /></clipPath><clipPath
     clipPathUnits="userSpaceOnUse"
     id="clipPath61"><path
       d="M 0,576 H 576 V 0 H 0 Z"
       transform="translate(-106.8024,-244.9696)"
       id="path61-7" /></clipPath><clipPath
     clipPathUnits="userSpaceOnUse"
     id="clipPath63"><path
       d="M 0,576 H 576 V 0 H 0 Z"
       transform="translate(-22.1296,-276.0205)"
       id="path63-5" /></clipPath><clipPath
     clipPathUnits="userSpaceOnUse"
     id="clipPath65"><path
       d="M 0,576 H 576 V 0 H 0 Z"
       transform="translate(-86.273005,-245.43261)"
       id="path65-3" /></clipPath><clipPath
     clipPathUnits="userSpaceOnUse"
     id="clipPath65-7"><path
       d="M 0,576 H 576 V 0 H 0 Z"
       transform="translate(-86.273005,-245.43261)"
       id="path65-5" /></clipPath><clipPath
     clipPathUnits="userSpaceOnUse"
     id="clipPath67"><path
       d="M 0,576 H 576 V 0 H 0 Z"
       transform="translate(-38.938301,-272.12191)"
       id="path67-5" /></clipPath><clipPath
     clipPathUnits="userSpaceOnUse"
     id="clipPath69"><path
       d="M 0,576 H 576 V 0 H 0 Z"
       transform="translate(-104.59101,-237.70831)"
       id="path69-6" /></clipPath><clipPath
     clipPathUnits="userSpaceOnUse"
     id="clipPath71"><path
       d="M 0,576 H 576 V 0 H 0 Z"
       transform="translate(-100.854,-229.83031)"
       id="path71-2" /></clipPath><clipPath
     clipPathUnits="userSpaceOnUse"
     id="clipPath73"><path
       d="M 0,576 H 576 V 0 H 0 Z"
       transform="translate(-41.253401,-275.42011)"
       id="path73-9" /></clipPath><clipPath
     clipPathUnits="userSpaceOnUse"
     id="clipPath75"><path
       d="M 0,576 H 576 V 0 H 0 Z"
       transform="translate(-49.633601,-254.7706)"
       id="path75-1" /></clipPath><clipPath
     clipPathUnits="userSpaceOnUse"
     id="clipPath77"><path
       d="M 0,576 H 576 V 0 H 0 Z"
       transform="translate(-50.278801,-255.0007)"
       id="path77-2" /></clipPath><clipPath
     clipPathUnits="userSpaceOnUse"
     id="clipPath79"><path
       d="M 0,576 H 576 V 0 H 0 Z"
       transform="translate(-50.869102,-255.793)"
       id="path79-7" /></clipPath><clipPath
     clipPathUnits="userSpaceOnUse"
     id="clipPath45-1-4-25-9"><path
       d="M 0,576 H 576 V 0 H 0 Z"
       transform="translate(-306.55941,-383.97941)"
       id="path45-1-9-4-49" /></clipPath><clipPath
     clipPathUnits="userSpaceOnUse"
     id="clipPath47-0-9-7-0"><path
       d="M 0,576 H 576 V 0 H 0 Z"
       transform="translate(-291.34891,-382.26801)"
       id="path47-3-9-4-9" /></clipPath><clipPath
     clipPathUnits="userSpaceOnUse"
     id="clipPath45-1-4-2-4-1"><path
       d="M 0,576 H 576 V 0 H 0 Z"
       transform="translate(-306.55941,-383.97941)"
       id="path45-1-9-9-3-7" /></clipPath><clipPath
     clipPathUnits="userSpaceOnUse"
     id="clipPath45-1-4-25-9-0"><path
       d="M 0,576 H 576 V 0 H 0 Z"
       transform="translate(-306.55941,-383.97941)"
       id="path45-1-9-4-49-6" /></clipPath><clipPath
     clipPathUnits="userSpaceOnUse"
     id="clipPath47-0-9-7-0-1"><path
       d="M 0,576 H 576 V 0 H 0 Z"
       transform="translate(-291.34891,-382.26801)"
       id="path47-3-9-4-9-5" /></clipPath><clipPath
     clipPathUnits="userSpaceOnUse"
     id="clipPath45-1-4-2-4-1-5"><path
       d="M 0,576 H 576 V 0 H 0 Z"
       transform="translate(-306.55941,-383.97941)"
       id="path45-1-9-9-3-7-4" /></clipPath><clipPath
     clipPathUnits="userSpaceOnUse"
     id="clipPath45-1-4-25-9-3"><path
       d="M 0,576 H 576 V 0 H 0 Z"
       transform="translate(-306.55941,-383.97941)"
       id="path45-1-9-4-49-7" /></clipPath><clipPath
     clipPathUnits="userSpaceOnUse"
     id="clipPath47-0-9-7-0-4"><path
       d="M 0,576 H 576 V 0 H 0 Z"
       transform="translate(-291.34891,-382.26801)"
       id="path47-3-9-4-9-52" /></clipPath><clipPath
     clipPathUnits="userSpaceOnUse"
     id="clipPath45-1-4-2-4-1-54"><path
       d="M 0,576 H 576 V 0 H 0 Z"
       transform="translate(-306.55941,-383.97941)"
       id="path45-1-9-9-3-7-7" /></clipPath><clipPath
     clipPathUnits="userSpaceOnUse"
     id="clipPath45-1-4-25-9-8"><path
       d="M 0,576 H 576 V 0 H 0 Z"
       transform="translate(-306.55941,-383.97941)"
       id="path45-1-9-4-49-68" /></clipPath><clipPath
     clipPathUnits="userSpaceOnUse"
     id="clipPath47-0-9-7-0-8"><path
       d="M 0,576 H 576 V 0 H 0 Z"
       transform="translate(-291.34891,-382.26801)"
       id="path47-3-9-4-9-4" /></clipPath><clipPath
     clipPathUnits="userSpaceOnUse"
     id="clipPath45-1-4-2-4-1-3"><path
       d="M 0,576 H 576 V 0 H 0 Z"
       transform="translate(-306.55941,-383.97941)"
       id="path45-1-9-9-3-7-1" /></clipPath><clipPath
     clipPathUnits="userSpaceOnUse"
     id="clipPath45-1-4-25-9-9"><path
       d="M 0,576 H 576 V 0 H 0 Z"
       transform="translate(-306.55941,-383.97941)"
       id="path45-1-9-4-49-2" /></clipPath><clipPath
     clipPathUnits="userSpaceOnUse"
     id="clipPath47-0-9-7-0-6"><path
       d="M 0,576 H 576 V 0 H 0 Z"
       transform="translate(-291.34891,-382.26801)"
       id="path47-3-9-4-9-6" /></clipPath><clipPath
     clipPathUnits="userSpaceOnUse"
     id="clipPath45-1-4-2-4-1-4"><path
       d="M 0,576 H 576 V 0 H 0 Z"
       transform="translate(-306.55941,-383.97941)"
       id="path45-1-9-9-3-7-9" /></clipPath><clipPath
     clipPathUnits="userSpaceOnUse"
     id="clipPath45-1-4-25-9-7"><path
       d="M 0,576 H 576 V 0 H 0 Z"
       transform="translate(-306.55941,-383.97941)"
       id="path45-1-9-4-49-27" /></clipPath><clipPath
     clipPathUnits="userSpaceOnUse"
     id="clipPath47-0-9-7-0-2"><path
       d="M 0,576 H 576 V 0 H 0 Z"
       transform="translate(-291.34891,-382.26801)"
       id="path47-3-9-4-9-2" /></clipPath><clipPath
     clipPathUnits="userSpaceOnUse"
     id="clipPath45-1-4-2-4-1-6"><path
       d="M 0,576 H 576 V 0 H 0 Z"
       transform="translate(-306.55941,-383.97941)"
       id="path45-1-9-9-3-7-10" /></clipPath><clipPath
     clipPathUnits="userSpaceOnUse"
     id="clipPath45-1-4-25-9-91"><path
       d="M 0,576 H 576 V 0 H 0 Z"
       transform="translate(-306.55941,-383.97941)"
       id="path45-1-9-4-49-77" /></clipPath><clipPath
     clipPathUnits="userSpaceOnUse"
     id="clipPath47-0-9-7-0-11"><path
       d="M 0,576 H 576 V 0 H 0 Z"
       transform="translate(-291.34891,-382.26801)"
       id="path47-3-9-4-9-59" /></clipPath><clipPath
     clipPathUnits="userSpaceOnUse"
     id="clipPath45-1-4-2-4-1-7"><path
       d="M 0,576 H 576 V 0 H 0 Z"
       transform="translate(-306.55941,-383.97941)"
       id="path45-1-9-9-3-7-76" /></clipPath><clipPath
     clipPathUnits="userSpaceOnUse"
     id="clipPath45-1-4-25-9-39"><path
       d="M 0,576 H 576 V 0 H 0 Z"
       transform="translate(-306.55941,-383.97941)"
       id="path45-1-9-4-49-4" /></clipPath><clipPath
     clipPathUnits="userSpaceOnUse"
     id="clipPath47-0-9-7-0-81"><path
       d="M 0,576 H 576 V 0 H 0 Z"
       transform="translate(-291.34891,-382.26801)"
       id="path47-3-9-4-9-29" /></clipPath><clipPath
     clipPathUnits="userSpaceOnUse"
     id="clipPath45-1-4-2-4-1-39"><path
       d="M 0,576 H 576 V 0 H 0 Z"
       transform="translate(-306.55941,-383.97941)"
       id="path45-1-9-9-3-7-0" /></clipPath><clipPath
     clipPathUnits="userSpaceOnUse"
     id="clipPath45-1-4-25-9-85"><path
       d="M 0,576 H 576 V 0 H 0 Z"
       transform="translate(-306.55941,-383.97941)"
       id="path45-1-9-4-49-61" /></clipPath><clipPath
     clipPathUnits="userSpaceOnUse"
     id="clipPath47-0-9-7-0-15"><path
       d="M 0,576 H 576 V 0 H 0 Z"
       transform="translate(-291.34891,-382.26801)"
       id="path47-3-9-4-9-9" /></clipPath><clipPath
     clipPathUnits="userSpaceOnUse"
     id="clipPath45-1-4-2-4-1-8"><path
       d="M 0,576 H 576 V 0 H 0 Z"
       transform="translate(-306.55941,-383.97941)"
       id="path45-1-9-9-3-7-48" /></clipPath><clipPath
     clipPathUnits="userSpaceOnUse"
     id="clipPath45-1-4-25-9-4"><path
       d="M 0,576 H 576 V 0 H 0 Z"
       transform="translate(-306.55941,-383.97941)"
       id="path45-1-9-4-49-76" /></clipPath><clipPath
     clipPathUnits="userSpaceOnUse"
     id="clipPath47-0-9-7-0-3"><path
       d="M 0,576 H 576 V 0 H 0 Z"
       transform="translate(-291.34891,-382.26801)"
       id="path47-3-9-4-9-1" /></clipPath><clipPath
     clipPathUnits="userSpaceOnUse"
     id="clipPath45-1-4-2-4-1-75"><path
       d="M 0,576 H 576 V 0 H 0 Z"
       transform="translate(-306.55941,-383.97941)"
       id="path45-1-9-9-3-7-96" /></clipPath><clipPath
     clipPathUnits="userSpaceOnUse"
     id="clipPath45-1-4-25-9-859"><path
       d="M 0,576 H 576 V 0 H 0 Z"
       transform="translate(-306.55941,-383.97941)"
       id="path45-1-9-4-49-75" /></clipPath><clipPath
     clipPathUnits="userSpaceOnUse"
     id="clipPath47-0-9-7-0-38"><path
       d="M 0,576 H 576 V 0 H 0 Z"
       transform="translate(-291.34891,-382.26801)"
       id="path47-3-9-4-9-8" /></clipPath><clipPath
     clipPathUnits="userSpaceOnUse"
     id="clipPath45-1-4-2-4-1-31"><path
       d="M 0,576 H 576 V 0 H 0 Z"
       transform="translate(-306.55941,-383.97941)"
       id="path45-1-9-9-3-7-8" /></clipPath><clipPath
     clipPathUnits="userSpaceOnUse"
     id="clipPath45-1-4-25-9-04"><path
       d="M 0,576 H 576 V 0 H 0 Z"
       transform="translate(-306.55941,-383.97941)"
       id="path45-1-9-4-49-8" /></clipPath><clipPath
     clipPathUnits="userSpaceOnUse"
     id="clipPath47-0-9-7-0-88"><path
       d="M 0,576 H 576 V 0 H 0 Z"
       transform="translate(-291.34891,-382.26801)"
       id="path47-3-9-4-9-97" /></clipPath><clipPath
     clipPathUnits="userSpaceOnUse"
     id="clipPath45-1-4-2-4-1-76"><path
       d="M 0,576 H 576 V 0 H 0 Z"
       transform="translate(-306.55941,-383.97941)"
       id="path45-1-9-9-3-7-43" /></clipPath><clipPath
     clipPathUnits="userSpaceOnUse"
     id="clipPath45-1-4-25-9-40"><path
       d="M 0,576 H 576 V 0 H 0 Z"
       transform="translate(-306.55941,-383.97941)"
       id="path45-1-9-4-49-5" /></clipPath><clipPath
     clipPathUnits="userSpaceOnUse"
     id="clipPath47-0-9-7-0-9"><path
       d="M 0,576 H 576 V 0 H 0 Z"
       transform="translate(-291.34891,-382.26801)"
       id="path47-3-9-4-9-46" /></clipPath><clipPath
     clipPathUnits="userSpaceOnUse"
     id="clipPath45-1-4-2-4-1-9"><path
       d="M 0,576 H 576 V 0 H 0 Z"
       transform="translate(-306.55941,-383.97941)"
       id="path45-1-9-9-3-7-2" /></clipPath><clipPath
     clipPathUnits="userSpaceOnUse"
     id="clipPath45-1-4-25-9-2"><path
       d="M 0,576 H 576 V 0 H 0 Z"
       transform="translate(-306.55941,-383.97941)"
       id="path45-1-9-4-49-89" /></clipPath><clipPath
     clipPathUnits="userSpaceOnUse"
     id="clipPath47-0-9-7-0-36"><path
       d="M 0,576 H 576 V 0 H 0 Z"
       transform="translate(-291.34891,-382.26801)"
       id="path47-3-9-4-9-80" /></clipPath><clipPath
     clipPathUnits="userSpaceOnUse"
     id="clipPath45-1-4-2-4-1-2"><path
       d="M 0,576 H 576 V 0 H 0 Z"
       transform="translate(-306.55941,-383.97941)"
       id="path45-1-9-9-3-7-105" /></clipPath><clipPath
     clipPathUnits="userSpaceOnUse"
     id="clipPath45-1-4-25-9-5"><path
       d="M 0,576 H 576 V 0 H 0 Z"
       transform="translate(-306.55941,-383.97941)"
       id="path45-1-9-4-49-86" /></clipPath><clipPath
     clipPathUnits="userSpaceOnUse"
     id="clipPath47-0-9-7-0-28"><path
       d="M 0,576 H 576 V 0 H 0 Z"
       transform="translate(-291.34891,-382.26801)"
       id="path47-3-9-4-9-47" /></clipPath><clipPath
     clipPathUnits="userSpaceOnUse"
     id="clipPath45-1-4-2-4-1-24"><path
       d="M 0,576 H 576 V 0 H 0 Z"
       transform="translate(-306.55941,-383.97941)"
       id="path45-1-9-9-3-7-06" /></clipPath><clipPath
     clipPathUnits="userSpaceOnUse"
     id="clipPath45-1-4-25-9-1"><path
       d="M 0,576 H 576 V 0 H 0 Z"
       transform="translate(-306.55941,-383.97941)"
       id="path45-1-9-4-49-1" /></clipPath><clipPath
     clipPathUnits="userSpaceOnUse"
     id="clipPath47-0-9-7-0-0"><path
       d="M 0,576 H 576 V 0 H 0 Z"
       transform="translate(-291.34891,-382.26801)"
       id="path47-3-9-4-9-3" /></clipPath><clipPath
     clipPathUnits="userSpaceOnUse"
     id="clipPath45-1-4-2-4-1-40"><path
       d="M 0,576 H 576 V 0 H 0 Z"
       transform="translate(-306.55941,-383.97941)"
       id="path45-1-9-9-3-7-3" /></clipPath><clipPath
     clipPathUnits="userSpaceOnUse"
     id="clipPath45-1-4-25-9-56"><path
       d="M 0,576 H 576 V 0 H 0 Z"
       transform="translate(-306.55941,-383.97941)"
       id="path45-1-9-4-49-64" /></clipPath><clipPath
     clipPathUnits="userSpaceOnUse"
     id="clipPath47-0-9-7-0-00"><path
       d="M 0,576 H 576 V 0 H 0 Z"
       transform="translate(-291.34891,-382.26801)"
       id="path47-3-9-4-9-462" /></clipPath><clipPath
     clipPathUnits="userSpaceOnUse"
     id="clipPath45-1-4-2-4-1-67"><path
       d="M 0,576 H 576 V 0 H 0 Z"
       transform="translate(-306.55941,-383.97941)"
       id="path45-1-9-9-3-7-5" /></clipPath><clipPath
     clipPathUnits="userSpaceOnUse"
     id="clipPath45-1-4-25-9-6"><path
       d="M 0,576 H 576 V 0 H 0 Z"
       transform="translate(-306.55941,-383.97941)"
       id="path45-1-9-4-49-0" /></clipPath><clipPath
     clipPathUnits="userSpaceOnUse"
     id="clipPath47-0-9-7-0-27"><path
       d="M 0,576 H 576 V 0 H 0 Z"
       transform="translate(-291.34891,-382.26801)"
       id="path47-3-9-4-9-61" /></clipPath><clipPath
     clipPathUnits="userSpaceOnUse"
     id="clipPath45-1-4-2-4-1-32"><path
       d="M 0,576 H 576 V 0 H 0 Z"
       transform="translate(-306.55941,-383.97941)"
       id="path45-1-9-9-3-7-15" /></clipPath><clipPath
     clipPathUnits="userSpaceOnUse"
     id="clipPath45-1-4-25-9-87"><path
       d="M 0,576 H 576 V 0 H 0 Z"
       transform="translate(-306.55941,-383.97941)"
       id="path45-1-9-4-49-04" /></clipPath><clipPath
     clipPathUnits="userSpaceOnUse"
     id="clipPath47-0-9-7-0-80"><path
       d="M 0,576 H 576 V 0 H 0 Z"
       transform="translate(-291.34891,-382.26801)"
       id="path47-3-9-4-9-42" /></clipPath><clipPath
     clipPathUnits="userSpaceOnUse"
     id="clipPath45-1-4-2-4-1-96"><path
       d="M 0,576 H 576 V 0 H 0 Z"
       transform="translate(-306.55941,-383.97941)"
       id="path45-1-9-9-3-7-104" /></clipPath><clipPath
     clipPathUnits="userSpaceOnUse"
     id="clipPath45-1-4-25-9-90"><path
       d="M 0,576 H 576 V 0 H 0 Z"
       transform="translate(-306.55941,-383.97941)"
       id="path45-1-9-4-49-28" /></clipPath><clipPath
     clipPathUnits="userSpaceOnUse"
     id="clipPath47-0-9-7-0-380"><path
       d="M 0,576 H 576 V 0 H 0 Z"
       transform="translate(-291.34891,-382.26801)"
       id="path47-3-9-4-9-40" /></clipPath><clipPath
     clipPathUnits="userSpaceOnUse"
     id="clipPath45-1-4-2-4-1-91"><path
       d="M 0,576 H 576 V 0 H 0 Z"
       transform="translate(-306.55941,-383.97941)"
       id="path45-1-9-9-3-7-962" /></clipPath><clipPath
     clipPathUnits="userSpaceOnUse"
     id="clipPath45-1-4-25-9-50"><path
       d="M 0,576 H 576 V 0 H 0 Z"
       transform="translate(-306.55941,-383.97941)"
       id="path45-1-9-4-49-29" /></clipPath><clipPath
     clipPathUnits="userSpaceOnUse"
     id="clipPath47-0-9-7-0-43"><path
       d="M 0,576 H 576 V 0 H 0 Z"
       transform="translate(-291.34891,-382.26801)"
       id="path47-3-9-4-9-51" /></clipPath><clipPath
     clipPathUnits="userSpaceOnUse"
     id="clipPath45-1-4-2-4-1-74"><path
       d="M 0,576 H 576 V 0 H 0 Z"
       transform="translate(-306.55941,-383.97941)"
       id="path45-1-9-9-3-7-31" /></clipPath><clipPath
     clipPathUnits="userSpaceOnUse"
     id="clipPath45-1-4-25-9-88"><path
       d="M 0,576 H 576 V 0 H 0 Z"
       transform="translate(-306.55941,-383.97941)"
       id="path45-1-9-4-49-9" /></clipPath><clipPath
     clipPathUnits="userSpaceOnUse"
     id="clipPath47-0-9-7-0-288"><path
       d="M 0,576 H 576 V 0 H 0 Z"
       transform="translate(-291.34891,-382.26801)"
       id="path47-3-9-4-9-86" /></clipPath><clipPath
     clipPathUnits="userSpaceOnUse"
     id="clipPath45-1-4-2-4-1-83"><path
       d="M 0,576 H 576 V 0 H 0 Z"
       transform="translate(-306.55941,-383.97941)"
       id="path45-1-9-9-3-7-83" /></clipPath><clipPath
     clipPathUnits="userSpaceOnUse"
     id="clipPath45-1-4-25-9-906"><path
       d="M 0,576 H 576 V 0 H 0 Z"
       transform="translate(-306.55941,-383.97941)"
       id="path45-1-9-4-49-87" /></clipPath><clipPath
     clipPathUnits="userSpaceOnUse"
     id="clipPath47-0-9-7-0-90"><path
       d="M 0,576 H 576 V 0 H 0 Z"
       transform="translate(-291.34891,-382.26801)"
       id="path47-3-9-4-9-33" /></clipPath><clipPath
     clipPathUnits="userSpaceOnUse"
     id="clipPath45-1-4-2-4-1-37"><path
       d="M 0,576 H 576 V 0 H 0 Z"
       transform="translate(-306.55941,-383.97941)"
       id="path45-1-9-9-3-7-32" /></clipPath><clipPath
     clipPathUnits="userSpaceOnUse"
     id="clipPath45-1-4-25-9-60"><path
       d="M 0,576 H 576 V 0 H 0 Z"
       transform="translate(-306.55941,-383.97941)"
       id="path45-1-9-4-49-41" /></clipPath><clipPath
     clipPathUnits="userSpaceOnUse"
     id="clipPath47-0-9-7-0-04"><path
       d="M 0,576 H 576 V 0 H 0 Z"
       transform="translate(-291.34891,-382.26801)"
       id="path47-3-9-4-9-87" /></clipPath><clipPath
     clipPathUnits="userSpaceOnUse"
     id="clipPath45-1-4-2-4-1-0"><path
       d="M 0,576 H 576 V 0 H 0 Z"
       transform="translate(-306.55941,-383.97941)"
       id="path45-1-9-9-3-7-86" /></clipPath><clipPath
     clipPathUnits="userSpaceOnUse"
     id="clipPath45-1-4-25-9-17"><path
       d="M 0,576 H 576 V 0 H 0 Z"
       transform="translate(-306.55941,-383.97941)"
       id="path45-1-9-4-49-891" /></clipPath><clipPath
     clipPathUnits="userSpaceOnUse"
     id="clipPath47-0-9-7-0-5"><path
       d="M 0,576 H 576 V 0 H 0 Z"
       transform="translate(-291.34891,-382.26801)"
       id="path47-3-9-4-9-49" /></clipPath><clipPath
     clipPathUnits="userSpaceOnUse"
     id="clipPath45-1-4-2-4-1-25"><path
       d="M 0,576 H 576 V 0 H 0 Z"
       transform="translate(-306.55941,-383.97941)"
       id="path45-1-9-9-3-7-74" /></clipPath></defs><sodipodi:namedview
   id="namedview136"
   pagecolor="#ffffff"
   bordercolor="#000000"
   borderopacity="0.25"
   inkscape:showpageshadow="2"
   inkscape:pageopacity="0.0"
   inkscape:pagecheckerboard="0"
   inkscape:deskcolor="#d1d1d1"
   inkscape:zoom="1.98"
   inkscape:cx="147.9798"
   inkscape:cy="252.52525"
   inkscape:window-width="2259"
   inkscape:window-height="1199"
   inkscape:window-x="0"
   inkscape:window-y="0"
   inkscape:window-maximized="1"
   inkscape:current-layer="g4" />

<g
   id="OBJECTS">
	<g
   id="g2"
   inkscape:label="outer circles">
		<path
   style="opacity:0.4;fill:#2d54c7;fill-opacity:1"
   d="M476.685,253.002c0,125.195-101.488,226.683-226.686,226.683    c-125.194,0-226.684-101.488-226.684-226.683c0-125.197,101.49-226.688,226.684-226.688    C375.197,26.315,476.685,127.805,476.685,253.002z"
   id="path1" />
		
			<ellipse
   transform="matrix(0.7071 -0.7071 0.7071 0.7071 -105.6759 250.8788)"
   style="opacity:0.7;fill:#2d54c7;fill-opacity:1"
   cx="249.999"
   cy="253.001"
   rx="194.58"
   ry="194.581"
   id="ellipse1" />
		
			
	</g>
	<g
   id="g126">
		<g
   id="g86">
			<defs
   id="defs2">
				
					<ellipse
   id="SVGID_1_"
   transform="matrix(0.7071 -0.7071 0.7071 0.7071 -105.6 250.9067)"
   cx="250.071"
   cy="252.924"
   ry="172.848"
   rx="172.848" />
			</defs>
			<clipPath
   id="SVGID_00000081649252740134267560000018052993402071144349_">
				<use
   xlink:href="#SVGID_1_"
   style="overflow:visible;"
   id="use2" />
			</clipPath>
			<g
   clip-path="url(#SVGID_00000081649252740134267560000018052993402071144349_)"
   id="g40"
   style="clip-path:url(#SVGID_00000081649252740134267560000018052993402071144349_);">
				<g
   id="g39">
					<defs
   id="defs3">
						
							<rect
   id="SVGID_00000122715325691776752850000004714042962144026002_"
   x="27.605"
   y="-13.322"
   width="444.932"
   height="444.93" />
					</defs>
					<clipPath
   id="SVGID_00000016069672325494474680000001534814746390761880_">
						<use
   xlink:href="#SVGID_00000122715325691776752850000004714042962144026002_"
   style="overflow:visible;"
   id="use3" />
					</clipPath>
					<g
   clip-path="url(#SVGID_00000016069672325494474680000001534814746390761880_)"
   id="g38"
   style="clip-path:url(#SVGID_00000016069672325494474680000001534814746390761880_);">
						<rect
   x="29.509"
   y="-11.224"
   style="fill:#0b1532;fill-opacity:1"
   width="444.931"
   height="444.931"
   id="rect3" />
						<g
   id="g4">
							<circle
   style="opacity:0.1;fill:#3C8FC3;"
   cx="250.071"
   cy="306.27"
   r="232.679"
   id="circle3" />
							
								
							
								
						<g
   id="g80-8-1-6"
   inkscape:label="Star"
   transform="matrix(0.23823423,0,0,0.23823423,73.964862,54.37967)"
   clip-path="url(#SVGID_00000016069672325494474680000001534814746390761880_)"><path
     id="path44-4-8-6-5-5"
     d="M 0,0 11.48,-1.712 0,-3.422 c -1.008,-0.15 -1.799,-0.942 -1.949,-1.949 l -1.712,-11.482 -1.711,11.481 c -0.15,1.008 -0.941,1.799 -1.949,1.949 L -18.802,-1.712 -7.322,0 c 1.008,0.15 1.799,0.941 1.949,1.949 l 1.712,11.48 1.712,-11.48 C -1.799,0.941 -1.008,0.15 0,0"
     style="fill:#ffffff;fill-opacity:1;fill-rule:nonzero;stroke:none;stroke-linecap:round;stroke-linejoin:round"
     transform="matrix(0.73056714,0,0,-0.75091222,386.11048,296.84617)"
     clip-path="url(#clipPath45-1-4-25-9-0)" /><path
     id="path46-5-1-8-9-6"
     d="m 0,0 7.679,-1.144 c 1.419,-0.213 2.514,-1.307 2.726,-2.727 l 1.145,-7.679 1.144,7.679 c 0.212,1.42 1.307,2.514 2.726,2.727 L 23.099,0 15.42,1.144 C 14.001,1.357 12.906,2.451 12.694,3.871 L 11.55,11.55 10.405,3.871 C 10.193,2.451 9.098,1.357 7.679,1.144 Z M 11.55,-18.732 9.356,-4.027 C 9.215,-3.071 8.478,-2.334 7.523,-2.193 L -7.182,0 7.523,2.193 C 8.478,2.334 9.215,3.071 9.356,4.027 L 11.55,18.732 13.743,4.027 C 13.884,3.071 14.621,2.334 15.576,2.193 L 30.286,0 15.576,-2.193 c -0.955,-0.141 -1.692,-0.878 -1.833,-1.834 z"
     style="fill:#2d54c7;fill-opacity:1;fill-rule:nonzero;stroke:#2d54c7;stroke-width:0.600972;stroke-linecap:round;stroke-linejoin:round;stroke-miterlimit:4;stroke-dasharray:none;stroke-opacity:1"
     transform="matrix(0.73056714,0,0,-0.75091222,374.99819,298.13127)"
     clip-path="url(#clipPath47-0-9-7-0-1)"
     sodipodi:nodetypes="cccccccccccccccccccccccccc" /><path
     id="path44-4-8-7-8-7-9"
     d="M 0,0 11.48,-1.712 0,-3.422 c -1.008,-0.15 -1.799,-0.942 -1.949,-1.949 l -1.712,-11.482 -1.711,11.481 c -0.15,1.008 -0.941,1.799 -1.949,1.949 L -18.802,-1.712 -7.322,0 c 1.008,0.15 1.799,0.941 1.949,1.949 l 1.712,11.48 1.712,-11.48 C -1.799,0.941 -1.008,0.15 0,0"
     style="fill:#ffe642;fill-opacity:1;fill-rule:nonzero;stroke:none;stroke-linecap:round;stroke-linejoin:round"
     transform="matrix(0.22519542,0,0,-0.23146673,384.29221,297.72909)"
     clip-path="url(#clipPath45-1-4-2-4-1-5)" /></g><g
   id="g80-8-1-4"
   inkscape:label="Star"
   transform="matrix(0.23823423,0,0,0.23823423,86.964862,96.37967)"
   clip-path="url(#SVGID_00000016069672325494474680000001534814746390761880_)"><path
     id="path44-4-8-6-5-3"
     d="M 0,0 11.48,-1.712 0,-3.422 c -1.008,-0.15 -1.799,-0.942 -1.949,-1.949 l -1.712,-11.482 -1.711,11.481 c -0.15,1.008 -0.941,1.799 -1.949,1.949 L -18.802,-1.712 -7.322,0 c 1.008,0.15 1.799,0.941 1.949,1.949 l 1.712,11.48 1.712,-11.48 C -1.799,0.941 -1.008,0.15 0,0"
     style="fill:#ffffff;fill-opacity:1;fill-rule:nonzero;stroke:none;stroke-linecap:round;stroke-linejoin:round"
     transform="matrix(0.73056714,0,0,-0.75091222,386.11048,296.84617)"
     clip-path="url(#clipPath45-1-4-25-9-3)" /><path
     id="path46-5-1-8-9-0"
     d="m 0,0 7.679,-1.144 c 1.419,-0.213 2.514,-1.307 2.726,-2.727 l 1.145,-7.679 1.144,7.679 c 0.212,1.42 1.307,2.514 2.726,2.727 L 23.099,0 15.42,1.144 C 14.001,1.357 12.906,2.451 12.694,3.871 L 11.55,11.55 10.405,3.871 C 10.193,2.451 9.098,1.357 7.679,1.144 Z M 11.55,-18.732 9.356,-4.027 C 9.215,-3.071 8.478,-2.334 7.523,-2.193 L -7.182,0 7.523,2.193 C 8.478,2.334 9.215,3.071 9.356,4.027 L 11.55,18.732 13.743,4.027 C 13.884,3.071 14.621,2.334 15.576,2.193 L 30.286,0 15.576,-2.193 c -0.955,-0.141 -1.692,-0.878 -1.833,-1.834 z"
     style="fill:#2d54c7;fill-opacity:1;fill-rule:nonzero;stroke:#2d54c7;stroke-width:0.600972;stroke-linecap:round;stroke-linejoin:round;stroke-miterlimit:4;stroke-dasharray:none;stroke-opacity:1"
     transform="matrix(0.73056714,0,0,-0.75091222,374.99819,298.13127)"
     clip-path="url(#clipPath47-0-9-7-0-4)"
     sodipodi:nodetypes="cccccccccccccccccccccccccc" /><path
     id="path44-4-8-7-8-7-7"
     d="M 0,0 11.48,-1.712 0,-3.422 c -1.008,-0.15 -1.799,-0.942 -1.949,-1.949 l -1.712,-11.482 -1.711,11.481 c -0.15,1.008 -0.941,1.799 -1.949,1.949 L -18.802,-1.712 -7.322,0 c 1.008,0.15 1.799,0.941 1.949,1.949 l 1.712,11.48 1.712,-11.48 C -1.799,0.941 -1.008,0.15 0,0"
     style="fill:#ffe642;fill-opacity:1;fill-rule:nonzero;stroke:none;stroke-linecap:round;stroke-linejoin:round"
     transform="matrix(0.22519542,0,0,-0.23146673,384.29221,297.72909)"
     clip-path="url(#clipPath45-1-4-2-4-1-54)" /></g><g
   id="g80-8-1-0"
   inkscape:label="Star"
   transform="matrix(0.23823423,0,0,0.23823423,117.10837,145.23692)"
   clip-path="url(#SVGID_00000016069672325494474680000001534814746390761880_)"><path
     id="path44-4-8-6-5-4"
     d="M 0,0 11.48,-1.712 0,-3.422 c -1.008,-0.15 -1.799,-0.942 -1.949,-1.949 l -1.712,-11.482 -1.711,11.481 c -0.15,1.008 -0.941,1.799 -1.949,1.949 L -18.802,-1.712 -7.322,0 c 1.008,0.15 1.799,0.941 1.949,1.949 l 1.712,11.48 1.712,-11.48 C -1.799,0.941 -1.008,0.15 0,0"
     style="fill:#ffffff;fill-opacity:1;fill-rule:nonzero;stroke:none;stroke-linecap:round;stroke-linejoin:round"
     transform="matrix(0.73056714,0,0,-0.75091222,386.11048,296.84617)"
     clip-path="url(#clipPath45-1-4-25-9-9)" /><path
     id="path46-5-1-8-9-8"
     d="m 0,0 7.679,-1.144 c 1.419,-0.213 2.514,-1.307 2.726,-2.727 l 1.145,-7.679 1.144,7.679 c 0.212,1.42 1.307,2.514 2.726,2.727 L 23.099,0 15.42,1.144 C 14.001,1.357 12.906,2.451 12.694,3.871 L 11.55,11.55 10.405,3.871 C 10.193,2.451 9.098,1.357 7.679,1.144 Z M 11.55,-18.732 9.356,-4.027 C 9.215,-3.071 8.478,-2.334 7.523,-2.193 L -7.182,0 7.523,2.193 C 8.478,2.334 9.215,3.071 9.356,4.027 L 11.55,18.732 13.743,4.027 C 13.884,3.071 14.621,2.334 15.576,2.193 L 30.286,0 15.576,-2.193 c -0.955,-0.141 -1.692,-0.878 -1.833,-1.834 z"
     style="fill:#2d54c7;fill-opacity:1;fill-rule:nonzero;stroke:#2d54c7;stroke-width:0.600972;stroke-linecap:round;stroke-linejoin:round;stroke-miterlimit:4;stroke-dasharray:none;stroke-opacity:1"
     transform="matrix(0.73056714,0,0,-0.75091222,374.99819,298.13127)"
     clip-path="url(#clipPath47-0-9-7-0-6)"
     sodipodi:nodetypes="cccccccccccccccccccccccccc" /><path
     id="path44-4-8-7-8-7-71"
     d="M 0,0 11.48,-1.712 0,-3.422 c -1.008,-0.15 -1.799,-0.942 -1.949,-1.949 l -1.712,-11.482 -1.711,11.481 c -0.15,1.008 -0.941,1.799 -1.949,1.949 L -18.802,-1.712 -7.322,0 c 1.008,0.15 1.799,0.941 1.949,1.949 l 1.712,11.48 1.712,-11.48 C -1.799,0.941 -1.008,0.15 0,0"
     style="fill:#ffe642;fill-opacity:1;fill-rule:nonzero;stroke:none;stroke-linecap:round;stroke-linejoin:round"
     transform="matrix(0.22519542,0,0,-0.23146673,384.29221,297.72909)"
     clip-path="url(#clipPath45-1-4-2-4-1-4)" /></g><g
   id="g80-8-1-3"
   inkscape:label="Star"
   transform="matrix(0.23823423,0,0,0.23823423,117.96486,29.37967)"
   clip-path="url(#SVGID_00000016069672325494474680000001534814746390761880_)"><path
     id="path44-4-8-6-5-6"
     d="M 0,0 11.48,-1.712 0,-3.422 c -1.008,-0.15 -1.799,-0.942 -1.949,-1.949 l -1.712,-11.482 -1.711,11.481 c -0.15,1.008 -0.941,1.799 -1.949,1.949 L -18.802,-1.712 -7.322,0 c 1.008,0.15 1.799,0.941 1.949,1.949 l 1.712,11.48 1.712,-11.48 C -1.799,0.941 -1.008,0.15 0,0"
     style="fill:#ffffff;fill-opacity:1;fill-rule:nonzero;stroke:none;stroke-linecap:round;stroke-linejoin:round"
     transform="matrix(0.73056714,0,0,-0.75091222,386.11048,296.84617)"
     clip-path="url(#clipPath45-1-4-25-9-91)" /><path
     id="path46-5-1-8-9-5"
     d="m 0,0 7.679,-1.144 c 1.419,-0.213 2.514,-1.307 2.726,-2.727 l 1.145,-7.679 1.144,7.679 c 0.212,1.42 1.307,2.514 2.726,2.727 L 23.099,0 15.42,1.144 C 14.001,1.357 12.906,2.451 12.694,3.871 L 11.55,11.55 10.405,3.871 C 10.193,2.451 9.098,1.357 7.679,1.144 Z M 11.55,-18.732 9.356,-4.027 C 9.215,-3.071 8.478,-2.334 7.523,-2.193 L -7.182,0 7.523,2.193 C 8.478,2.334 9.215,3.071 9.356,4.027 L 11.55,18.732 13.743,4.027 C 13.884,3.071 14.621,2.334 15.576,2.193 L 30.286,0 15.576,-2.193 c -0.955,-0.141 -1.692,-0.878 -1.833,-1.834 z"
     style="fill:#2d54c7;fill-opacity:1;fill-rule:nonzero;stroke:#2d54c7;stroke-width:0.600972;stroke-linecap:round;stroke-linejoin:round;stroke-miterlimit:4;stroke-dasharray:none;stroke-opacity:1"
     transform="matrix(0.73056714,0,0,-0.75091222,374.99819,298.13127)"
     clip-path="url(#clipPath47-0-9-7-0-11)"
     sodipodi:nodetypes="cccccccccccccccccccccccccc" /><path
     id="path44-4-8-7-8-7-6"
     d="M 0,0 11.48,-1.712 0,-3.422 c -1.008,-0.15 -1.799,-0.942 -1.949,-1.949 l -1.712,-11.482 -1.711,11.481 c -0.15,1.008 -0.941,1.799 -1.949,1.949 L -18.802,-1.712 -7.322,0 c 1.008,0.15 1.799,0.941 1.949,1.949 l 1.712,11.48 1.712,-11.48 C -1.799,0.941 -1.008,0.15 0,0"
     style="fill:#ffe642;fill-opacity:1;fill-rule:nonzero;stroke:none;stroke-linecap:round;stroke-linejoin:round"
     transform="matrix(0.22519542,0,0,-0.23146673,384.29221,297.72909)"
     clip-path="url(#clipPath45-1-4-2-4-1-7)" /></g><g
   id="g80-8-1-03"
   inkscape:label="Star"
   transform="matrix(0.23823423,0,0,0.23823423,222.24985,76.093664)"
   clip-path="url(#SVGID_00000016069672325494474680000001534814746390761880_)"><path
     id="path44-4-8-6-5-0"
     d="M 0,0 11.48,-1.712 0,-3.422 c -1.008,-0.15 -1.799,-0.942 -1.949,-1.949 l -1.712,-11.482 -1.711,11.481 c -0.15,1.008 -0.941,1.799 -1.949,1.949 L -18.802,-1.712 -7.322,0 c 1.008,0.15 1.799,0.941 1.949,1.949 l 1.712,11.48 1.712,-11.48 C -1.799,0.941 -1.008,0.15 0,0"
     style="fill:#ffffff;fill-opacity:1;fill-rule:nonzero;stroke:none;stroke-linecap:round;stroke-linejoin:round"
     transform="matrix(0.73056714,0,0,-0.75091222,386.11048,296.84617)"
     clip-path="url(#clipPath45-1-4-25-9-85)" /><path
     id="path46-5-1-8-9-44"
     d="m 0,0 7.679,-1.144 c 1.419,-0.213 2.514,-1.307 2.726,-2.727 l 1.145,-7.679 1.144,7.679 c 0.212,1.42 1.307,2.514 2.726,2.727 L 23.099,0 15.42,1.144 C 14.001,1.357 12.906,2.451 12.694,3.871 L 11.55,11.55 10.405,3.871 C 10.193,2.451 9.098,1.357 7.679,1.144 Z M 11.55,-18.732 9.356,-4.027 C 9.215,-3.071 8.478,-2.334 7.523,-2.193 L -7.182,0 7.523,2.193 C 8.478,2.334 9.215,3.071 9.356,4.027 L 11.55,18.732 13.743,4.027 C 13.884,3.071 14.621,2.334 15.576,2.193 L 30.286,0 15.576,-2.193 c -0.955,-0.141 -1.692,-0.878 -1.833,-1.834 z"
     style="fill:#2d54c7;fill-opacity:1;fill-rule:nonzero;stroke:#2d54c7;stroke-width:0.600972;stroke-linecap:round;stroke-linejoin:round;stroke-miterlimit:4;stroke-dasharray:none;stroke-opacity:1"
     transform="matrix(0.73056714,0,0,-0.75091222,374.99819,298.13127)"
     clip-path="url(#clipPath47-0-9-7-0-15)"
     sodipodi:nodetypes="cccccccccccccccccccccccccc" /><path
     id="path44-4-8-7-8-7-4"
     d="M 0,0 11.48,-1.712 0,-3.422 c -1.008,-0.15 -1.799,-0.942 -1.949,-1.949 l -1.712,-11.482 -1.711,11.481 c -0.15,1.008 -0.941,1.799 -1.949,1.949 L -18.802,-1.712 -7.322,0 c 1.008,0.15 1.799,0.941 1.949,1.949 l 1.712,11.48 1.712,-11.48 C -1.799,0.941 -1.008,0.15 0,0"
     style="fill:#ffe642;fill-opacity:1;fill-rule:nonzero;stroke:none;stroke-linecap:round;stroke-linejoin:round"
     transform="matrix(0.22519542,0,0,-0.23146673,384.29221,297.72909)"
     clip-path="url(#clipPath45-1-4-2-4-1-8)" /></g><g
   id="g80-8-1-64"
   inkscape:label="Star"
   transform="matrix(0.23823423,0,0,0.23823423,234.46371,120.23845)"
   clip-path="url(#SVGID_00000016069672325494474680000001534814746390761880_)"><path
     id="path44-4-8-6-5-33"
     d="M 0,0 11.48,-1.712 0,-3.422 c -1.008,-0.15 -1.799,-0.942 -1.949,-1.949 l -1.712,-11.482 -1.711,11.481 c -0.15,1.008 -0.941,1.799 -1.949,1.949 L -18.802,-1.712 -7.322,0 c 1.008,0.15 1.799,0.941 1.949,1.949 l 1.712,11.48 1.712,-11.48 C -1.799,0.941 -1.008,0.15 0,0"
     style="fill:#ffffff;fill-opacity:1;fill-rule:nonzero;stroke:none;stroke-linecap:round;stroke-linejoin:round"
     transform="matrix(0.73056714,0,0,-0.75091222,386.11048,296.84617)"
     clip-path="url(#clipPath45-1-4-25-9-859)" /><path
     id="path46-5-1-8-9-3"
     d="m 0,0 7.679,-1.144 c 1.419,-0.213 2.514,-1.307 2.726,-2.727 l 1.145,-7.679 1.144,7.679 c 0.212,1.42 1.307,2.514 2.726,2.727 L 23.099,0 15.42,1.144 C 14.001,1.357 12.906,2.451 12.694,3.871 L 11.55,11.55 10.405,3.871 C 10.193,2.451 9.098,1.357 7.679,1.144 Z M 11.55,-18.732 9.356,-4.027 C 9.215,-3.071 8.478,-2.334 7.523,-2.193 L -7.182,0 7.523,2.193 C 8.478,2.334 9.215,3.071 9.356,4.027 L 11.55,18.732 13.743,4.027 C 13.884,3.071 14.621,2.334 15.576,2.193 L 30.286,0 15.576,-2.193 c -0.955,-0.141 -1.692,-0.878 -1.833,-1.834 z"
     style="fill:#2d54c7;fill-opacity:1;fill-rule:nonzero;stroke:#2d54c7;stroke-width:0.600972;stroke-linecap:round;stroke-linejoin:round;stroke-miterlimit:4;stroke-dasharray:none;stroke-opacity:1"
     transform="matrix(0.73056714,0,0,-0.75091222,374.99819,298.13127)"
     clip-path="url(#clipPath47-0-9-7-0-38)"
     sodipodi:nodetypes="cccccccccccccccccccccccccc" /><path
     id="path44-4-8-7-8-7-86"
     d="M 0,0 11.48,-1.712 0,-3.422 c -1.008,-0.15 -1.799,-0.942 -1.949,-1.949 l -1.712,-11.482 -1.711,11.481 c -0.15,1.008 -0.941,1.799 -1.949,1.949 L -18.802,-1.712 -7.322,0 c 1.008,0.15 1.799,0.941 1.949,1.949 l 1.712,11.48 1.712,-11.48 C -1.799,0.941 -1.008,0.15 0,0"
     style="fill:#ffe642;fill-opacity:1;fill-rule:nonzero;stroke:none;stroke-linecap:round;stroke-linejoin:round"
     transform="matrix(0.22519542,0,0,-0.23146673,384.29221,297.72909)"
     clip-path="url(#clipPath45-1-4-2-4-1-31)" /></g><g
   id="g80-8-1-30"
   inkscape:label="Star"
   transform="matrix(0.23823423,0,0,0.23823423,180.96486,157.37967)"
   clip-path="url(#SVGID_00000016069672325494474680000001534814746390761880_)"><path
     id="path44-4-8-6-5-9"
     d="M 0,0 11.48,-1.712 0,-3.422 c -1.008,-0.15 -1.799,-0.942 -1.949,-1.949 l -1.712,-11.482 -1.711,11.481 c -0.15,1.008 -0.941,1.799 -1.949,1.949 L -18.802,-1.712 -7.322,0 c 1.008,0.15 1.799,0.941 1.949,1.949 l 1.712,11.48 1.712,-11.48 C -1.799,0.941 -1.008,0.15 0,0"
     style="fill:#ffffff;fill-opacity:1;fill-rule:nonzero;stroke:none;stroke-linecap:round;stroke-linejoin:round"
     transform="matrix(0.73056714,0,0,-0.75091222,386.11048,296.84617)"
     clip-path="url(#clipPath45-1-4-25-9-04)" /><path
     id="path46-5-1-8-9-2"
     d="m 0,0 7.679,-1.144 c 1.419,-0.213 2.514,-1.307 2.726,-2.727 l 1.145,-7.679 1.144,7.679 c 0.212,1.42 1.307,2.514 2.726,2.727 L 23.099,0 15.42,1.144 C 14.001,1.357 12.906,2.451 12.694,3.871 L 11.55,11.55 10.405,3.871 C 10.193,2.451 9.098,1.357 7.679,1.144 Z M 11.55,-18.732 9.356,-4.027 C 9.215,-3.071 8.478,-2.334 7.523,-2.193 L -7.182,0 7.523,2.193 C 8.478,2.334 9.215,3.071 9.356,4.027 L 11.55,18.732 13.743,4.027 C 13.884,3.071 14.621,2.334 15.576,2.193 L 30.286,0 15.576,-2.193 c -0.955,-0.141 -1.692,-0.878 -1.833,-1.834 z"
     style="fill:#2d54c7;fill-opacity:1;fill-rule:nonzero;stroke:#2d54c7;stroke-width:0.600972;stroke-linecap:round;stroke-linejoin:round;stroke-miterlimit:4;stroke-dasharray:none;stroke-opacity:1"
     transform="matrix(0.73056714,0,0,-0.75091222,374.99819,298.13127)"
     clip-path="url(#clipPath47-0-9-7-0-88)"
     sodipodi:nodetypes="cccccccccccccccccccccccccc" /><path
     id="path44-4-8-7-8-7-5"
     d="M 0,0 11.48,-1.712 0,-3.422 c -1.008,-0.15 -1.799,-0.942 -1.949,-1.949 l -1.712,-11.482 -1.711,11.481 c -0.15,1.008 -0.941,1.799 -1.949,1.949 L -18.802,-1.712 -7.322,0 c 1.008,0.15 1.799,0.941 1.949,1.949 l 1.712,11.48 1.712,-11.48 C -1.799,0.941 -1.008,0.15 0,0"
     style="fill:#ffe642;fill-opacity:1;fill-rule:nonzero;stroke:none;stroke-linecap:round;stroke-linejoin:round"
     transform="matrix(0.22519542,0,0,-0.23146673,384.29221,297.72909)"
     clip-path="url(#clipPath45-1-4-2-4-1-76)" /></g><g
   id="g80-8-1-99"
   inkscape:label="Star"
   transform="matrix(0.23823423,0,0,0.23823423,299.96486,99.37967)"
   clip-path="url(#SVGID_00000016069672325494474680000001534814746390761880_)"><path
     id="path44-4-8-6-5-08"
     d="M 0,0 11.48,-1.712 0,-3.422 c -1.008,-0.15 -1.799,-0.942 -1.949,-1.949 l -1.712,-11.482 -1.711,11.481 c -0.15,1.008 -0.941,1.799 -1.949,1.949 L -18.802,-1.712 -7.322,0 c 1.008,0.15 1.799,0.941 1.949,1.949 l 1.712,11.48 1.712,-11.48 C -1.799,0.941 -1.008,0.15 0,0"
     style="fill:#ffffff;fill-opacity:1;fill-rule:nonzero;stroke:none;stroke-linecap:round;stroke-linejoin:round"
     transform="matrix(0.73056714,0,0,-0.75091222,386.11048,296.84617)"
     clip-path="url(#clipPath45-1-4-25-9-5)" /><path
     id="path46-5-1-8-9-1"
     d="m 0,0 7.679,-1.144 c 1.419,-0.213 2.514,-1.307 2.726,-2.727 l 1.145,-7.679 1.144,7.679 c 0.212,1.42 1.307,2.514 2.726,2.727 L 23.099,0 15.42,1.144 C 14.001,1.357 12.906,2.451 12.694,3.871 L 11.55,11.55 10.405,3.871 C 10.193,2.451 9.098,1.357 7.679,1.144 Z M 11.55,-18.732 9.356,-4.027 C 9.215,-3.071 8.478,-2.334 7.523,-2.193 L -7.182,0 7.523,2.193 C 8.478,2.334 9.215,3.071 9.356,4.027 L 11.55,18.732 13.743,4.027 C 13.884,3.071 14.621,2.334 15.576,2.193 L 30.286,0 15.576,-2.193 c -0.955,-0.141 -1.692,-0.878 -1.833,-1.834 z"
     style="fill:#2d54c7;fill-opacity:1;fill-rule:nonzero;stroke:#2d54c7;stroke-width:0.600972;stroke-linecap:round;stroke-linejoin:round;stroke-miterlimit:4;stroke-dasharray:none;stroke-opacity:1"
     transform="matrix(0.73056714,0,0,-0.75091222,374.99819,298.13127)"
     clip-path="url(#clipPath47-0-9-7-0-28)"
     sodipodi:nodetypes="cccccccccccccccccccccccccc" /><path
     id="path44-4-8-7-8-7-3"
     d="M 0,0 11.48,-1.712 0,-3.422 c -1.008,-0.15 -1.799,-0.942 -1.949,-1.949 l -1.712,-11.482 -1.711,11.481 c -0.15,1.008 -0.941,1.799 -1.949,1.949 L -18.802,-1.712 -7.322,0 c 1.008,0.15 1.799,0.941 1.949,1.949 l 1.712,11.48 1.712,-11.48 C -1.799,0.941 -1.008,0.15 0,0"
     style="fill:#ffe642;fill-opacity:1;fill-rule:nonzero;stroke:none;stroke-linecap:round;stroke-linejoin:round"
     transform="matrix(0.22519542,0,0,-0.23146673,384.29221,297.72909)"
     clip-path="url(#clipPath45-1-4-2-4-1-24)" /></g><g
   id="g80-8-1-98"
   inkscape:label="Star"
   transform="matrix(0.23823423,0,0,0.23823423,234.96486,46.37967)"
   clip-path="url(#SVGID_00000016069672325494474680000001534814746390761880_)"><path
     id="path44-4-8-6-5-72"
     d="M 0,0 11.48,-1.712 0,-3.422 c -1.008,-0.15 -1.799,-0.942 -1.949,-1.949 l -1.712,-11.482 -1.711,11.481 c -0.15,1.008 -0.941,1.799 -1.949,1.949 L -18.802,-1.712 -7.322,0 c 1.008,0.15 1.799,0.941 1.949,1.949 l 1.712,11.48 1.712,-11.48 C -1.799,0.941 -1.008,0.15 0,0"
     style="fill:#ffffff;fill-opacity:1;fill-rule:nonzero;stroke:none;stroke-linecap:round;stroke-linejoin:round"
     transform="matrix(0.73056714,0,0,-0.75091222,386.11048,296.84617)"
     clip-path="url(#clipPath45-1-4-25-9-56)" /><path
     id="path46-5-1-8-9-82"
     d="m 0,0 7.679,-1.144 c 1.419,-0.213 2.514,-1.307 2.726,-2.727 l 1.145,-7.679 1.144,7.679 c 0.212,1.42 1.307,2.514 2.726,2.727 L 23.099,0 15.42,1.144 C 14.001,1.357 12.906,2.451 12.694,3.871 L 11.55,11.55 10.405,3.871 C 10.193,2.451 9.098,1.357 7.679,1.144 Z M 11.55,-18.732 9.356,-4.027 C 9.215,-3.071 8.478,-2.334 7.523,-2.193 L -7.182,0 7.523,2.193 C 8.478,2.334 9.215,3.071 9.356,4.027 L 11.55,18.732 13.743,4.027 C 13.884,3.071 14.621,2.334 15.576,2.193 L 30.286,0 15.576,-2.193 c -0.955,-0.141 -1.692,-0.878 -1.833,-1.834 z"
     style="fill:#2d54c7;fill-opacity:1;fill-rule:nonzero;stroke:#2d54c7;stroke-width:0.600972;stroke-linecap:round;stroke-linejoin:round;stroke-miterlimit:4;stroke-dasharray:none;stroke-opacity:1"
     transform="matrix(0.73056714,0,0,-0.75091222,374.99819,298.13127)"
     clip-path="url(#clipPath47-0-9-7-0-00)"
     sodipodi:nodetypes="cccccccccccccccccccccccccc" /><path
     id="path44-4-8-7-8-7-99"
     d="M 0,0 11.48,-1.712 0,-3.422 c -1.008,-0.15 -1.799,-0.942 -1.949,-1.949 l -1.712,-11.482 -1.711,11.481 c -0.15,1.008 -0.941,1.799 -1.949,1.949 L -18.802,-1.712 -7.322,0 c 1.008,0.15 1.799,0.941 1.949,1.949 l 1.712,11.48 1.712,-11.48 C -1.799,0.941 -1.008,0.15 0,0"
     style="fill:#ffe642;fill-opacity:1;fill-rule:nonzero;stroke:none;stroke-linecap:round;stroke-linejoin:round"
     transform="matrix(0.22519542,0,0,-0.23146673,384.29221,297.72909)"
     clip-path="url(#clipPath45-1-4-2-4-1-67)" /></g><g
   id="g80-8-1-2"
   inkscape:label="Star"
   transform="matrix(0.23823423,0,0,0.23823423,50.321732,123.38044)"
   clip-path="url(#SVGID_00000016069672325494474680000001534814746390761880_)"><path
     id="path44-4-8-6-5-20"
     d="M 0,0 11.48,-1.712 0,-3.422 c -1.008,-0.15 -1.799,-0.942 -1.949,-1.949 l -1.712,-11.482 -1.711,11.481 c -0.15,1.008 -0.941,1.799 -1.949,1.949 L -18.802,-1.712 -7.322,0 c 1.008,0.15 1.799,0.941 1.949,1.949 l 1.712,11.48 1.712,-11.48 C -1.799,0.941 -1.008,0.15 0,0"
     style="fill:#ffffff;fill-opacity:1;fill-rule:nonzero;stroke:none;stroke-linecap:round;stroke-linejoin:round"
     transform="matrix(0.73056714,0,0,-0.75091222,386.11048,296.84617)"
     clip-path="url(#clipPath45-1-4-25-9-87)" /><path
     id="path46-5-1-8-9-55"
     d="m 0,0 7.679,-1.144 c 1.419,-0.213 2.514,-1.307 2.726,-2.727 l 1.145,-7.679 1.144,7.679 c 0.212,1.42 1.307,2.514 2.726,2.727 L 23.099,0 15.42,1.144 C 14.001,1.357 12.906,2.451 12.694,3.871 L 11.55,11.55 10.405,3.871 C 10.193,2.451 9.098,1.357 7.679,1.144 Z M 11.55,-18.732 9.356,-4.027 C 9.215,-3.071 8.478,-2.334 7.523,-2.193 L -7.182,0 7.523,2.193 C 8.478,2.334 9.215,3.071 9.356,4.027 L 11.55,18.732 13.743,4.027 C 13.884,3.071 14.621,2.334 15.576,2.193 L 30.286,0 15.576,-2.193 c -0.955,-0.141 -1.692,-0.878 -1.833,-1.834 z"
     style="fill:#2d54c7;fill-opacity:1;fill-rule:nonzero;stroke:#2d54c7;stroke-width:0.600972;stroke-linecap:round;stroke-linejoin:round;stroke-miterlimit:4;stroke-dasharray:none;stroke-opacity:1"
     transform="matrix(0.73056714,0,0,-0.75091222,374.99819,298.13127)"
     clip-path="url(#clipPath47-0-9-7-0-80)"
     sodipodi:nodetypes="cccccccccccccccccccccccccc" /><path
     id="path44-4-8-7-8-7-2"
     d="M 0,0 11.48,-1.712 0,-3.422 c -1.008,-0.15 -1.799,-0.942 -1.949,-1.949 l -1.712,-11.482 -1.711,11.481 c -0.15,1.008 -0.941,1.799 -1.949,1.949 L -18.802,-1.712 -7.322,0 c 1.008,0.15 1.799,0.941 1.949,1.949 l 1.712,11.48 1.712,-11.48 C -1.799,0.941 -1.008,0.15 0,0"
     style="fill:#ffe642;fill-opacity:1;fill-rule:nonzero;stroke:none;stroke-linecap:round;stroke-linejoin:round"
     transform="matrix(0.22519542,0,0,-0.23146673,384.29221,297.72909)"
     clip-path="url(#clipPath45-1-4-2-4-1-96)" /></g><g
   id="g80-8-1-44"
   inkscape:label="Star"
   transform="matrix(0.23823423,0,0,0.23823423,11.964862,111.37967)"
   clip-path="url(#SVGID_00000016069672325494474680000001534814746390761880_)"><path
     id="path44-4-8-6-5-99"
     d="M 0,0 11.48,-1.712 0,-3.422 c -1.008,-0.15 -1.799,-0.942 -1.949,-1.949 l -1.712,-11.482 -1.711,11.481 c -0.15,1.008 -0.941,1.799 -1.949,1.949 L -18.802,-1.712 -7.322,0 c 1.008,0.15 1.799,0.941 1.949,1.949 l 1.712,11.48 1.712,-11.48 C -1.799,0.941 -1.008,0.15 0,0"
     style="fill:#ffffff;fill-opacity:1;fill-rule:nonzero;stroke:none;stroke-linecap:round;stroke-linejoin:round"
     transform="matrix(0.73056714,0,0,-0.75091222,386.11048,296.84617)"
     clip-path="url(#clipPath45-1-4-25-9-90)" /><path
     id="path46-5-1-8-9-36"
     d="m 0,0 7.679,-1.144 c 1.419,-0.213 2.514,-1.307 2.726,-2.727 l 1.145,-7.679 1.144,7.679 c 0.212,1.42 1.307,2.514 2.726,2.727 L 23.099,0 15.42,1.144 C 14.001,1.357 12.906,2.451 12.694,3.871 L 11.55,11.55 10.405,3.871 C 10.193,2.451 9.098,1.357 7.679,1.144 Z M 11.55,-18.732 9.356,-4.027 C 9.215,-3.071 8.478,-2.334 7.523,-2.193 L -7.182,0 7.523,2.193 C 8.478,2.334 9.215,3.071 9.356,4.027 L 11.55,18.732 13.743,4.027 C 13.884,3.071 14.621,2.334 15.576,2.193 L 30.286,0 15.576,-2.193 c -0.955,-0.141 -1.692,-0.878 -1.833,-1.834 z"
     style="fill:#2d54c7;fill-opacity:1;fill-rule:nonzero;stroke:#2d54c7;stroke-width:0.600972;stroke-linecap:round;stroke-linejoin:round;stroke-miterlimit:4;stroke-dasharray:none;stroke-opacity:1"
     transform="matrix(0.73056714,0,0,-0.75091222,374.99819,298.13127)"
     clip-path="url(#clipPath47-0-9-7-0-380)"
     sodipodi:nodetypes="cccccccccccccccccccccccccc" /><path
     id="path44-4-8-7-8-7-0"
     d="M 0,0 11.48,-1.712 0,-3.422 c -1.008,-0.15 -1.799,-0.942 -1.949,-1.949 l -1.712,-11.482 -1.711,11.481 c -0.15,1.008 -0.941,1.799 -1.949,1.949 L -18.802,-1.712 -7.322,0 c 1.008,0.15 1.799,0.941 1.949,1.949 l 1.712,11.48 1.712,-11.48 C -1.799,0.941 -1.008,0.15 0,0"
     style="fill:#ffe642;fill-opacity:1;fill-rule:nonzero;stroke:none;stroke-linecap:round;stroke-linejoin:round"
     transform="matrix(0.22519542,0,0,-0.23146673,384.29221,297.72909)"
     clip-path="url(#clipPath45-1-4-2-4-1-91)" /></g><g
   id="g80-8-1"
   inkscape:label="Star"
   transform="matrix(0.23823423,0,0,0.23823423,267.96486,80.37967)"
   clip-path="url(#SVGID_00000016069672325494474680000001534814746390761880_)"><path
     id="path44-4-8-6-5"
     d="M 0,0 11.48,-1.712 0,-3.422 c -1.008,-0.15 -1.799,-0.942 -1.949,-1.949 l -1.712,-11.482 -1.711,11.481 c -0.15,1.008 -0.941,1.799 -1.949,1.949 L -18.802,-1.712 -7.322,0 c 1.008,0.15 1.799,0.941 1.949,1.949 l 1.712,11.48 1.712,-11.48 C -1.799,0.941 -1.008,0.15 0,0"
     style="fill:#ffffff;fill-opacity:1;fill-rule:nonzero;stroke:none;stroke-linecap:round;stroke-linejoin:round"
     transform="matrix(0.73056714,0,0,-0.75091222,386.11048,296.84617)"
     clip-path="url(#clipPath45-1-4-25-9-17)" /><path
     id="path46-5-1-8-9"
     d="m 0,0 7.679,-1.144 c 1.419,-0.213 2.514,-1.307 2.726,-2.727 l 1.145,-7.679 1.144,7.679 c 0.212,1.42 1.307,2.514 2.726,2.727 L 23.099,0 15.42,1.144 C 14.001,1.357 12.906,2.451 12.694,3.871 L 11.55,11.55 10.405,3.871 C 10.193,2.451 9.098,1.357 7.679,1.144 Z M 11.55,-18.732 9.356,-4.027 C 9.215,-3.071 8.478,-2.334 7.523,-2.193 L -7.182,0 7.523,2.193 C 8.478,2.334 9.215,3.071 9.356,4.027 L 11.55,18.732 13.743,4.027 C 13.884,3.071 14.621,2.334 15.576,2.193 L 30.286,0 15.576,-2.193 c -0.955,-0.141 -1.692,-0.878 -1.833,-1.834 z"
     style="fill:#2d54c7;fill-opacity:1;fill-rule:nonzero;stroke:#2d54c7;stroke-width:0.600972;stroke-linecap:round;stroke-linejoin:round;stroke-miterlimit:4;stroke-dasharray:none;stroke-opacity:1"
     transform="matrix(0.73056714,0,0,-0.75091222,374.99819,298.13127)"
     clip-path="url(#clipPath47-0-9-7-0-5)"
     sodipodi:nodetypes="cccccccccccccccccccccccccc" /><path
     id="path44-4-8-7-8-7"
     d="M 0,0 11.48,-1.712 0,-3.422 c -1.008,-0.15 -1.799,-0.942 -1.949,-1.949 l -1.712,-11.482 -1.711,11.481 c -0.15,1.008 -0.941,1.799 -1.949,1.949 L -18.802,-1.712 -7.322,0 c 1.008,0.15 1.799,0.941 1.949,1.949 l 1.712,11.48 1.712,-11.48 C -1.799,0.941 -1.008,0.15 0,0"
     style="fill:#ffe642;fill-opacity:1;fill-rule:nonzero;stroke:none;stroke-linecap:round;stroke-linejoin:round"
     transform="matrix(0.22519542,0,0,-0.23146673,384.29221,297.72909)"
     clip-path="url(#clipPath45-1-4-2-4-1-25)" /></g></g>
						<path
   style="opacity:0.15;fill:#2d54c7;fill-opacity:1"
   d="M673.934,216.245c0-66.115-53.596-119.71-119.709-119.71        c-45.489,0-85.053,25.375-105.309,62.74c-2.055-0.188-4.133-0.296-6.234-0.296c-28.038,0-52.113,16.933-62.579,41.126        c-2.613-0.305-5.268-0.479-7.963-0.479c-31.523,0-58.035,21.404-65.829,50.469c-3.495-0.308-7.028-0.473-10.601-0.473        c-18.776,0-36.541,4.326-52.357,12.029c-10.062-25.085-34.589-42.808-63.27-42.808c-16.943,0-32.43,6.196-44.354,16.428        c-8.246-28.369-34.414-49.11-65.443-49.11c-3.07,0-6.084,0.223-9.047,0.615C47.22,136.236,0.884,99.135-54.121,99.135        c-66.113,0-119.709,53.596-119.709,119.71c0,23.896,7.005,46.155,19.07,64.841c-1.203,6.815-1.835,13.824-1.835,20.983        c0,66.113,53.596,119.709,119.71,119.709c15.517,0,30.345-2.951,43.951-8.326c17.017,45.385,60.792,77.691,112.12,77.691        c36.103,0,68.47-15.982,90.421-41.258c21.768,22.535,52.295,36.557,86.103,36.557c42.173,0,79.248-21.813,100.571-54.766        c21.397,20.023,50.145,32.285,81.76,32.285c66.115,0,119.711-53.596,119.711-119.709c0-6.299-0.49-12.482-1.429-18.52        C641.666,311.295,673.934,267.539,673.934,216.245z"
   id="path4" />
						<path
   style="opacity:0.3;fill:#2d54c7;fill-opacity:1"
   d="M-131.328,272.334c0-58.064,47.07-105.133,105.133-105.133        c39.951,0,74.697,22.285,92.486,55.102c1.806-0.164,3.629-0.26,5.477-0.26c24.623,0,45.766,14.871,54.958,36.117        c2.295-0.268,4.625-0.42,6.993-0.42c27.685,0,50.969,18.799,57.814,44.324c3.068-0.27,6.172-0.416,9.31-0.416        c16.49,0,32.092,3.799,45.982,10.566c8.836-22.031,30.377-37.596,55.567-37.596c14.88,0,28.481,5.441,38.954,14.426        c7.241-24.914,30.223-43.13,57.474-43.13c2.696,0,5.344,0.196,7.945,0.542c12.311-44.388,53.005-76.972,101.313-76.972        c58.064,0,105.133,47.069,105.133,105.134c0,20.984-6.152,40.535-16.748,56.945c1.057,5.984,1.612,12.141,1.612,18.428        c0,58.063-47.07,105.133-105.134,105.133c-13.628,0-26.651-2.592-38.6-7.313c-14.944,39.859-53.392,68.231-98.469,68.231        c-31.706,0-60.133-14.035-79.41-36.234c-19.118,19.795-45.928,32.105-75.62,32.105c-37.037,0-69.598-19.154-88.325-48.096        c-18.792,17.584-44.039,28.354-71.806,28.354c-58.063,0-105.133-47.07-105.133-105.135c0-5.531,0.43-10.961,1.254-16.262        C-102.989,355.81-131.328,317.385-131.328,272.334z"
   id="path5" />
						<g
   id="g12">
							<g
   id="g11">
								<path
   style="fill:#FFFFFF;"
   d="M289.006,422.637c-10.472-21.518-24.533-103.947-24.533-103.947          c15.029,62.978,34.641,99.799,37.826,105.535h50.089c-91.983-108.713-94.84-216.611-94.84-216.611h-14.872          c0,0-2.855,107.898-94.839,216.611h150.32L289.006,422.637z M195.577,399.268c0,0,21.87-37.584,38.276-106.33          c0,0-14.063,82.43-24.534,103.947L195.577,399.268z M243.953,399.379l-13.041,4.943c0,0,15.182-59.561,18.257-130.172          C249.169,274.15,250.155,376.266,243.953,399.379z"
   id="path6" />
								<g
   id="g10">
									<path
   style="fill:#FFFFFF;"
   d="M271.981,257.213c0,0,27.94,78.813,41.934,98.227h13.947           C327.862,355.44,299.893,322.143,271.981,257.213z"
   id="path7" />
									<path
   style="fill:#FFFFFF;"
   d="M292.502,279.397c0,0,39.605,73.644,56.39,90.703l13.784-2.121           C362.676,367.978,329.969,339.324,292.502,279.397z"
   id="path8" />
									<path
   style="fill:#FFFFFF;"
   d="M221.99,268.305c0,0-27.94,78.814-41.934,98.225h-13.947           C166.109,366.529,194.08,333.234,221.99,268.305z"
   id="path9" />
									<path
   style="fill:#FFFFFF;"
   d="M201.47,290.486c0,0-39.605,73.648-56.39,90.705l-13.785-2.121           C131.295,379.07,164.003,350.418,201.47,290.486z"
   id="path10" />
								</g>
							</g>
						</g>
						<g
   id="g37">
							<g
   id="g18">
								
									<ellipse
   transform="matrix(0.0416 -0.9991 0.9991 0.0416 -24.3135 819.2752)"
   style="fill:#FFFFFF;"
   cx="414.874"
   cy="422.311"
   id="ellipse12"
   ry="90.607"
   rx="90.607" />
								<circle
   style="fill:#FFFFFF;"
   cx="276.868"
   cy="439.326"
   r="90.607"
   id="circle12" />
								<g
   id="g17">
									
										<ellipse
   transform="matrix(0.7071 -0.7071 0.7071 0.7071 -90.3146 428.8719)"
   style="fill:#FFFFFF;"
   cx="472.537"
   cy="323.455"
   id="ellipse13"
   ry="90.607"
   rx="90.607" />
									<path
   style="fill:#FFFFFF;"
   d="M233.865,442.885c0,50.041-40.566,90.607-90.607,90.607s-90.607-40.566-90.607-90.607           s40.566-90.605,90.607-90.605S233.865,392.844,233.865,442.885z"
   id="path13" />
									<path
   style="fill:#FFFFFF;"
   d="M115.735,390.383c0,50.041-40.566,90.607-90.607,90.607           c-50.041,0-90.607-40.566-90.607-90.607s40.566-90.605,90.607-90.605C75.169,299.777,115.735,340.342,115.735,390.383z"
   id="path14" />
									
										<ellipse
   transform="matrix(0.344 -0.939 0.939 0.344 -297.6411 224.838)"
   style="fill:#FFFFFF;"
   cx="12.083"
   cy="325.424"
   id="ellipse14"
   ry="90.607"
   rx="90.607" />
									<path
   style="fill:#FFFFFF;"
   d="M157.836,352.279c0,28.492-23.098,51.592-51.592,51.592           c-28.493,0-51.592-23.1-51.592-51.592c0-28.494,23.099-51.594,51.592-51.594           C134.738,300.685,157.836,323.785,157.836,352.279z"
   id="path15" />
									<circle
   style="fill:#FFFFFF;"
   cx="334.718"
   cy="362.471"
   r="51.592"
   id="circle15" />
									<circle
   style="fill:#FFFFFF;"
   cx="388.109"
   cy="331.703"
   r="51.592"
   id="circle16" />
									<circle
   style="fill:#FFFFFF;"
   cx="189.349"
   cy="377.016"
   r="51.592"
   id="circle17" />
								</g>
							</g>
							<g
   id="g36">
								<g
   id="g22">
									<g
   id="g19">
										<path
   style="fill:#E6E7E8;"
   d="M66.415,386.664c13.652,0,25.263,5.992,29.559,14.352            c-3.216-13.342-15.229-23.258-29.559-23.258c-14.33,0-26.343,9.916-29.559,23.258            C41.151,392.656,52.763,386.664,66.415,386.664z"
   id="path18" />
									</g>
									<g
   id="g20">
										<path
   style="fill:#E6E7E8;"
   d="M107.771,370.133c-5.544-2.109-11.76-2.623-17.959-1.115            c-8.441,2.053-15.188,7.445-19.191,14.432c2.075,0.119,4.07,0.574,5.923,1.336c4.192-3.154,9.438-5.672,15.373-7.113            c2.323-0.565,4.626-0.926,6.883-1.115C101.078,373.609,104.192,371.338,107.771,370.133z"
   id="path19" />
									</g>
									<g
   id="g21">
										<path
   style="fill:#E6E7E8;"
   d="M134.566,374.918c17.799,4.357,31.026,15.879,33.957,28.148            c0.068-18.424-12.429-35.186-31.113-39.762c-18.685-4.576-37.512,4.516-45.966,20.885            C99.714,374.662,116.766,370.559,134.566,374.918z"
   id="path20" />
									</g>
								</g>
								<g
   id="g25">
									<g
   id="g23">
										<path
   style="fill:#E6E7E8;"
   d="M259.886,382.152c20.666,0,38.242,9.07,44.745,21.725            c-4.869-20.197-23.053-35.205-44.745-35.205c-21.692,0-39.876,15.008-44.745,35.205            C221.644,391.223,239.22,382.152,259.886,382.152z"
   id="path22" />
									</g>
									<g
   id="g24">
										<path
   style="fill:#E6E7E8;"
   d="M275.103,374.674c0.21-0.006,0.41-0.029,0.623-0.029c4.299,0,8.772,1.773,12.284,4.66            c10.104-16.521,25.643-26.438,39.167-26.016C307.399,347.83,285.763,356.19,275.103,374.674z"
   id="path23" />
									</g>
								</g>
								<g
   id="g28">
									<g
   id="g26">
										<path
   style="fill:#E6E7E8;"
   d="M435.962,289.063c19-17.199,42.705-23.492,59.214-17.27            c-21.285-14.516-50.489-13.178-70.433,4.873c-19.942,18.053-24.169,46.981-11.836,69.6            C408.353,329.223,416.964,306.258,435.962,289.063z"
   id="path25" />
									</g>
									<g
   id="g27">
										<path
   style="fill:#E6E7E8;"
   d="M410.507,315.428c-4.271-0.445-8.704-0.029-13.051,1.381            c-14.235,4.611-22.983,18.326-21.883,32.617c1.575-9.688,11.185-19.377,24.749-23.77c2.568-0.832,5.134-1.424,7.651-1.797            C408.134,320.838,409.028,317.959,410.507,315.428z"
   id="path26" />
									</g>
								</g>
								<g
   id="g32">
									<g
   id="g29">
										<path
   style="fill:#E6E7E8;"
   d="M67.345,295.92c14.558,10.178,22.473,25.221,20.822,37.336            c6.516-16.625,1.098-36.15-14.183-46.832c-15.279-10.684-35.48-9.068-48.855,2.762            C35.941,283.475,52.788,285.742,67.345,295.92z"
   id="path28" />
									</g>
									<g
   id="g30">
										<path
   style="fill:#E6E7E8;"
   d="M184.509,351.217c12.903,3.719,22.247,12.543,24.031,21.615            c0.592-13.488-8.062-26.131-21.607-30.031c-13.544-3.904-27.599,2.195-34.272,13.932            C158.997,350,171.604,347.5,184.509,351.217z"
   id="path29" />
									</g>
									<g
   id="g31">
										<path
   style="fill:#E6E7E8;"
   d="M85.918,310.645c2.093,2.922,3.402,6.631,3.702,10.383            c13.167-3.064,25.688-0.984,33.258,5.367C114.354,314.816,100.114,308.787,85.918,310.645z"
   id="path30" />
									</g>
								</g>
								<g
   id="g35">
									<g
   id="g33">
										<path
   style="fill:#E6E7E8;"
   d="M383.903,384.885c11.261-4.285,22.717-2.988,28.883,2.557            c-6.841-9.992-19.859-14.4-31.68-9.902c-11.819,4.5-18.613,16.447-17.078,28.459            C364.947,397.756,372.642,389.172,383.903,384.885z"
   id="path32" />
									</g>
									<g
   id="g34">
										<path
   style="fill:#E6E7E8;"
   d="M399.246,380.082c2.436-0.06,5.016,0.621,7.235,1.883            c3.302-8.557,9.243-14.787,15.693-16.611C412.43,365.721,403.616,371.41,399.246,380.082z"
   id="path33" />
									</g>
								</g>
							</g>
						</g>
					</g>
				</g>
			</g>
			
		</g>
		<g
   id="g87">
			<path
   style="display:inline;opacity:0.8;fill:#ffe642;fill-opacity:1"
   d="m 250.071,430.185 c -97.743,0 -177.263,-79.518 -177.263,-177.262 0,-97.743 79.519,-177.262 177.263,-177.262 97.743,0 177.262,79.52 177.262,177.262 0,97.744 -79.519,177.262 -177.262,177.262 z m 0,-349.109 c -94.757,0 -171.848,77.09 -171.848,171.848 0,94.757 77.091,171.848 171.848,171.848 94.757,0 171.848,-77.091 171.848,-171.848 0,-94.757 -77.09,-171.848 -171.848,-171.848 z"
   id="path86" />
		</g>
		
	</g><g
   id="g1"
   inkscape:label="Rocket"
   transform="matrix(0.81749268,1.7656468,-1.7656468,0.81749268,913.38876,-480.47936)"><path
     id="path54-0"
     d="m 0,0 17.154,-12.212 c -1.997,-0.526 -6.714,-1.854 -8.517,-2.018 -0.408,-0.037 -0.622,-0.031 -1,0.152 -1.243,0.606 -5.366,4.494 -6.964,5.663 -2.523,1.846 -5.206,3.503 -7.822,5.212 C -7.176,-2.813 -0.714,-0.265 0,0"
     style="fill:#2d54c7;fill-opacity:1;fill-rule:nonzero;stroke:none"
     transform="matrix(1.0902501,0,0,-1.0902501,169.66535,426.78341)"
     clip-path="url(#clipPath55)" /><path
     id="path56-9"
     d="m 0,0 c 0.547,0.203 1.07,0.393 1.567,0.704 1.741,-1.026 3.31,-2.301 4.947,-3.473 4.086,-2.923 8.204,-5.83 12.189,-8.891 -0.513,-0.17 -1.029,-0.415 -1.549,-0.552 z"
     style="fill:#0b1532;fill-opacity:1;fill-rule:nonzero;stroke:none"
     transform="matrix(1.0902501,0,0,-1.0902501,169.66535,426.78341)"
     clip-path="url(#clipPath57)" /><path
     id="path54-9"
     d="m 0,0 17.154,-12.212 c -1.997,-0.526 -6.714,-1.854 -8.517,-2.018 -0.408,-0.037 -0.622,-0.031 -1,0.152 -1.243,0.606 -5.366,4.494 -6.964,5.663 -2.523,1.846 -5.206,3.503 -7.822,5.212 C -7.176,-2.813 -0.714,-0.265 0,0"
     style="fill:#2d54c7;fill-opacity:1;fill-rule:nonzero;stroke:none"
     transform="matrix(0.64967732,0.87553678,-0.87553678,0.64967732,146.97554,469.79271)"
     clip-path="url(#clipPath55-7)"
     inkscape:transform-center-x="-1.3241963"
     inkscape:transform-center-y="3.5757871" /><path
     id="path56-1"
     d="m 0,0 c 0.547,0.203 1.07,0.393 1.567,0.704 1.741,-1.026 3.31,-2.301 4.947,-3.473 4.086,-2.923 8.204,-5.83 12.189,-8.891 -0.513,-0.17 -1.029,-0.415 -1.549,-0.552 z"
     style="fill:#0b1532;fill-opacity:1;fill-rule:nonzero;stroke:none"
     transform="matrix(0.64967732,0.87553678,-0.87553678,0.64967732,146.97554,469.79271)"
     clip-path="url(#clipPath57-3)"
     inkscape:transform-center-x="-2.5276403"
     inkscape:transform-center-y="8.6032661" /><path
     id="path60-3"
     d="m 0,0 c -17.116,18.015 -41.442,26.879 -65.549,30.451 0.207,0.375 0.261,1.134 0.775,1.294 C -40.39,29.413 -16.859,19.589 1.26,2.995 1.462,2.492 0.246,0.556 0,0"
     style="fill:#091229;fill-opacity:1;fill-rule:nonzero;stroke:none"
     transform="matrix(1.0902501,0,0,-1.0902501,178.27516,447.81913)"
     clip-path="url(#clipPath61)" /><path
     id="path62-6"
     d="M 0,0 C 5.728,-0.706 11.37,-1.98 16.809,-3.899 15.249,-7.567 13.785,-11.29 11.899,-14.813 8.052,-10.175 3.051,-5.188 0,0"
     style="fill:#2d54c7;fill-opacity:1;fill-rule:nonzero;stroke:none"
     transform="matrix(1.0902501,0,0,-1.0902501,85.960633,413.96588)"
     clip-path="url(#clipPath63)"
     sodipodi:nodetypes="cccc" /><path
     id="path64-0"
     d="M 0,0 C -0.044,0.119 -0.134,0.248 -0.051,0.346 2.536,-0.046 5.36,0.414 7.852,-0.401 L 19.087,-9.268 C 15.348,-8.234 11.382,-7.611 7.715,-6.341 6.827,-6.033 5.103,-5.508 4.393,-4.979 3.974,-4.667 0.114,-0.312 0,0"
     style="fill:#2d54c7;fill-opacity:1;fill-rule:nonzero;stroke:none"
     transform="matrix(1.0902501,0,0,-1.0902501,155.89299,447.31434)"
     clip-path="url(#clipPath65)" /><path
     id="path64-2"
     d="M 0,0 C -0.044,0.119 -0.134,0.248 -0.051,0.346 2.536,-0.046 5.36,0.414 7.852,-0.401 L 19.087,-9.268 C 15.348,-8.234 11.382,-7.611 7.715,-6.341 6.827,-6.033 5.103,-5.508 4.393,-4.979 3.974,-4.667 0.114,-0.312 0,0"
     style="fill:#2d54c7;fill-opacity:1;fill-rule:nonzero;stroke:none"
     transform="matrix(0.97938935,0,0,-0.97938935,157.37228,447.94182)"
     clip-path="url(#clipPath65-7)" /><path
     id="path66-6"
     d="m 0,0 c -5.439,1.919 -11.081,3.192 -16.809,3.899 -0.039,0.067 -0.696,0.711 -0.386,0.88 3.647,0.123 7.307,0.335 10.958,0.27 C -5.265,5.032 1.935,4.844 2.053,4.441 1.442,2.94 0.632,1.485 0,0"
     style="fill:#2648aa;fill-opacity:1;fill-rule:nonzero;stroke:none"
     transform="matrix(1.0902501,0,0,-1.0902501,104.28632,418.21633)"
     clip-path="url(#clipPath67)" /><path
     id="path68-2"
     d="M 0,0 C -0.331,0.688 2.959,6.58 3.308,7.652 3.613,7.315 5.281,6.135 5.34,5.831 5.414,5.441 2.194,-0.379 2.022,-1.388 1.897,-1.443 0.053,-0.111 0,0"
     style="fill:#2d54c7;fill-opacity:1;fill-rule:nonzero;stroke:none"
     transform="matrix(1.0902501,0,0,-1.0902501,175.86419,455.73576)"
     clip-path="url(#clipPath69)" /><path
     id="path70-6"
     d="M 0,0 C -0.144,0.297 2.266,5.929 2.561,6.077 2.707,6.15 4.81,5.548 5.173,5.481 L 2.022,-1.388 C 1.842,-1.467 0.054,-0.11 0,0"
     style="fill:#2d54c7;fill-opacity:1;fill-rule:nonzero;stroke:none"
     transform="matrix(1.0902501,0,0,-1.0902501,171.78992,464.32475)"
     clip-path="url(#clipPath71)" /><path
     id="path72-1"
     d="m 0,0 c 24.106,-3.572 48.433,-12.436 65.549,-30.451 -0.958,-2.168 -1.941,-4.335 -3.008,-6.454 l -10.079,7.462 c -0.919,0.032 -8.942,0.77 -9.064,0.332 1.916,-1.667 3.674,-4.963 5.637,-6.427 1.985,-1.481 12.209,-3.247 12.431,-3.859 L 57.06,-48.459 C 33.069,-44.235 9.823,-32.945 -6.649,-14.807 -4.172,-10.131 -2.527,-4.597 0,0"
     style="fill:#0b1532;fill-opacity:1;fill-rule:nonzero;stroke:none"
     transform="matrix(1.0902501,0,0,-1.0902501,106.81036,414.62047)"
     clip-path="url(#clipPath73)"
     sodipodi:nodetypes="cccccccccc" /><path
     id="path74-8"
     d="M 0,0 C -5.194,10.878 11.515,17.817 15.755,7.217 19.911,-3.173 4.623,-9.681 0,0"
     style="fill:#2d54c7;fill-opacity:1;fill-rule:nonzero;stroke:none"
     transform="matrix(1.0902501,0,0,-1.0902501,115.94687,437.13359)"
     clip-path="url(#clipPath75)" /><path
     id="path76-7"
     d="M 0,0 C -4.791,9.964 10.096,16.311 14.326,7.144 18.802,-2.553 4.331,-9.008 0,0"
     style="fill:#ffe642;fill-opacity:1;fill-rule:nonzero;stroke:none"
     transform="matrix(1.0902501,0,0,-1.0902501,116.6503,436.88272)"
     clip-path="url(#clipPath77)" /><path
     id="path78-9"
     d="M 0,0 C -3.627,8.601 8.849,13.921 12.695,6.417 17.406,-2.779 3.681,-8.731 0,0"
     style="fill:#131330;fill-opacity:1;fill-rule:nonzero;stroke:none"
     transform="matrix(1.0902501,0,0,-1.0902501,117.29388,436.01892)"
     clip-path="url(#clipPath79)" /><path
     d="m 124.98883,425.92864 c -1.25797,-0.11782 -2.59287,0.0988 -3.89681,0.72707 -1.31484,0.63344 -2.10668,1.64103 -2.77391,2.89264 l -0.001,-1.5e-4 c -3.79298,7.11825 5.34625,14.16895 11.13003,8.08535 0.97141,-1.02265 1.67848,-2.21757 1.85946,-3.67742 0.53641,-4.30839 -2.54349,-7.67405 -6.31743,-8.02749 z"
     style="fill:#ffffff"
     id="path246" /></g>
</g>

</svg>
