<?xml version="1.0" encoding="UTF-8" standalone="no"?>
<!-- Created with Inkscape (http://www.inkscape.org/) -->

<svg
   width="180"
   height="180"
   viewBox="0 0 180 180"
   version="1.1"
   id="svg1"
   inkscape:version="1.4.2 (ebf0e940d0, 2025-05-08)"
   sodipodi:docname="star.svg"
   xmlns:inkscape="http://www.inkscape.org/namespaces/inkscape"
   xmlns:sodipodi="http://sodipodi.sourceforge.net/DTD/sodipodi-0.dtd"
   xmlns="http://www.w3.org/2000/svg"
   xmlns:svg="http://www.w3.org/2000/svg">
  <sodipodi:namedview
     id="namedview1"
     pagecolor="#ffffff"
     bordercolor="#000000"
     borderopacity="0.25"
     inkscape:showpageshadow="2"
     inkscape:pageopacity="0.0"
     inkscape:pagecheckerboard="0"
     inkscape:deskcolor="#d1d1d1"
     inkscape:document-units="px"
     inkscape:zoom="3.8890873"
     inkscape:cx="60.425489"
     inkscape:cy="91.281057"
     inkscape:window-width="2259"
     inkscape:window-height="1199"
     inkscape:window-x="0"
     inkscape:window-y="0"
     inkscape:window-maximized="1"
     inkscape:current-layer="layer1" />
  <defs
     id="defs1">
    <clipPath
       clipPathUnits="userSpaceOnUse"
       id="clipPath45-1-4-25-9">
      <path
         d="M 0,576 H 576 V 0 H 0 Z"
         transform="translate(-306.55941,-383.97941)"
         id="path45-1-9-4-49" />
    </clipPath>
    <clipPath
       clipPathUnits="userSpaceOnUse"
       id="clipPath47-0-9-7-0">
      <path
         d="M 0,576 H 576 V 0 H 0 Z"
         transform="translate(-291.34891,-382.26801)"
         id="path47-3-9-4-9" />
    </clipPath>
    <clipPath
       clipPathUnits="userSpaceOnUse"
       id="clipPath45-1-4-2-4-1">
      <path
         d="M 0,576 H 576 V 0 H 0 Z"
         transform="translate(-306.55941,-383.97941)"
         id="path45-1-9-9-3-7" />
    </clipPath>
  </defs>
  <g
     inkscape:label="Layer 1"
     inkscape:groupmode="layer"
     id="layer1">
    <g
       id="g80-8-1"
       inkscape:label="Star"
       transform="matrix(5.9766837,0,0,5.9766837,-2201.6859,-1691.8363)">
      <path
         id="path44-4-8-6-5"
         d="M 0,0 11.48,-1.712 0,-3.422 c -1.008,-0.15 -1.799,-0.942 -1.949,-1.949 l -1.712,-11.482 -1.711,11.481 c -0.15,1.008 -0.941,1.799 -1.949,1.949 L -18.802,-1.712 -7.322,0 c 1.008,0.15 1.799,0.941 1.949,1.949 l 1.712,11.48 1.712,-11.48 C -1.799,0.941 -1.008,0.15 0,0"
         style="fill:#ffffff;fill-opacity:1;fill-rule:nonzero;stroke:none;stroke-linecap:round;stroke-linejoin:round"
         transform="matrix(0.73056714,0,0,-0.75091222,386.11048,296.84617)"
         clip-path="url(#clipPath45-1-4-25-9)" />
      <path
         id="path46-5-1-8-9"
         d="m 0,0 7.679,-1.144 c 1.419,-0.213 2.514,-1.307 2.726,-2.727 l 1.145,-7.679 1.144,7.679 c 0.212,1.42 1.307,2.514 2.726,2.727 L 23.099,0 15.42,1.144 C 14.001,1.357 12.906,2.451 12.694,3.871 L 11.55,11.55 10.405,3.871 C 10.193,2.451 9.098,1.357 7.679,1.144 Z M 11.55,-18.732 9.356,-4.027 C 9.215,-3.071 8.478,-2.334 7.523,-2.193 L -7.182,0 7.523,2.193 C 8.478,2.334 9.215,3.071 9.356,4.027 L 11.55,18.732 13.743,4.027 C 13.884,3.071 14.621,2.334 15.576,2.193 L 30.286,0 15.576,-2.193 c -0.955,-0.141 -1.692,-0.878 -1.833,-1.834 z"
         style="fill:#2d54c7;fill-opacity:1;fill-rule:nonzero;stroke:#2d54c7;stroke-width:0.600972;stroke-linecap:round;stroke-linejoin:round;stroke-miterlimit:4;stroke-dasharray:none;stroke-opacity:1"
         transform="matrix(0.73056714,0,0,-0.75091222,374.99819,298.13127)"
         clip-path="url(#clipPath47-0-9-7-0)"
         sodipodi:nodetypes="cccccccccccccccccccccccccc" />
      <path
         id="path44-4-8-7-8-7"
         d="M 0,0 11.48,-1.712 0,-3.422 c -1.008,-0.15 -1.799,-0.942 -1.949,-1.949 l -1.712,-11.482 -1.711,11.481 c -0.15,1.008 -0.941,1.799 -1.949,1.949 L -18.802,-1.712 -7.322,0 c 1.008,0.15 1.799,0.941 1.949,1.949 l 1.712,11.48 1.712,-11.48 C -1.799,0.941 -1.008,0.15 0,0"
         style="fill:#ffe642;fill-opacity:1;fill-rule:nonzero;stroke:none;stroke-linecap:round;stroke-linejoin:round"
         transform="matrix(0.22519542,0,0,-0.23146673,384.29221,297.72909)"
         clip-path="url(#clipPath45-1-4-2-4-1)" />
    </g>
  </g>
</svg>
